%TF.GenerationSoftware,KiCad,Pcbnew,10.0.6*%
%TF.CreationDate,2026-09-01T08:29:53-03:00*%
%TF.ProjectId,Adapter,41646170-7465-4722-9e6b-696361645f70,rev?*%
%TF.SameCoordinates,Original*%
%TF.FileFunction,Copper,L2,Bot*%
%TF.FilePolarity,Positive*%
%FSLAX46Y46*%
G04 Gerber Fmt 4.6, Leading zero omitted, Abs format (unit mm)*
G04 Created by KiCad (PCBNEW 10.0.6) date 2026-09-01 08:29:53*
%MOMM*%
%LPD*%
G01*
G04 APERTURE LIST*
G04 Aperture macros list*
%AMRoundRect*
0 Rectangle with rounded corners*
0 $1 Rounding radius*
0 $2 $3 $4 $5 $6 $7 $8 $9 X,Y pos of 4 corners*
0 Add a 4 corners polygon primitive as box body*
4,1,4,$2,$3,$4,$5,$6,$7,$8,$9,$2,$3,0*
0 Add four circle primitives for the rounded corners*
1,1,$1+$1,$2,$3*
1,1,$1+$1,$4,$5*
1,1,$1+$1,$6,$7*
1,1,$1+$1,$8,$9*
0 Add four rect primitives between the rounded corners*
20,1,$1+$1,$2,$3,$4,$5,0*
20,1,$1+$1,$4,$5,$6,$7,0*
20,1,$1+$1,$6,$7,$8,$9,0*
20,1,$1+$1,$8,$9,$2,$3,0*%
G04 Aperture macros list end*
%TA.AperFunction,ComponentPad*%
%ADD10R,1.905000X2.000000*%
%TD*%
%TA.AperFunction,ComponentPad*%
%ADD11O,1.905000X2.000000*%
%TD*%
%TA.AperFunction,SMDPad,CuDef*%
%ADD12RoundRect,0.150000X-0.150000X0.587500X-0.150000X-0.587500X0.150000X-0.587500X0.150000X0.587500X0*%
%TD*%
%TA.AperFunction,Conductor*%
%ADD13C,1.000000*%
%TD*%
G04 APERTURE END LIST*
D10*
%TO.P,Q1,1,G_1*%
%TO.N,Net-(Q1-G)*%
X117100000Y-109900000D03*
D11*
%TO.P,Q1,2,D_2*%
%TO.N,Net-(Q1-D)*%
X119640000Y-109900000D03*
%TO.P,Q1,3,S_3*%
%TO.N,Net-(Q1-S)*%
X122180000Y-109900000D03*
%TD*%
D10*
%TO.P,Q1,1,G_1*%
%TO.N,Net-(Q1-G)*%
X144100000Y-109900000D03*
D11*
%TO.P,Q1,2,D_2*%
%TO.N,Net-(Q1-D)*%
X146640000Y-109900000D03*
%TO.P,Q1,3,S_3*%
%TO.N,Net-(Q1-S)*%
X149180000Y-109900000D03*
%TD*%
D12*
%TO.P,Q1,1,G_1*%
%TO.N,Net-(Q1-G)*%
X127750000Y-105262500D03*
%TO.P,Q1,2,S_2*%
%TO.N,Net-(Q1-S)*%
X129650000Y-105262500D03*
%TO.P,Q1,3,D_3*%
%TO.N,Net-(Q1-D)*%
X128700000Y-107137500D03*
%TD*%
%TO.P,Q1,1,G_1*%
%TO.N,Net-(Q1-G)*%
X118750000Y-105262500D03*
%TO.P,Q1,2,S_2*%
%TO.N,Net-(Q1-S)*%
X120650000Y-105262500D03*
%TO.P,Q1,3,D_3*%
%TO.N,Net-(Q1-D)*%
X119700000Y-107137500D03*
%TD*%
D10*
%TO.P,Q1,1,G_1*%
%TO.N,Net-(Q1-G)*%
X117100000Y-101700000D03*
D11*
%TO.P,Q1,2,D_2*%
%TO.N,Net-(Q1-D)*%
X119640000Y-101700000D03*
%TO.P,Q1,3,S_3*%
%TO.N,Net-(Q1-S)*%
X122180000Y-101700000D03*
%TD*%
D12*
%TO.P,Q1,1,G_1*%
%TO.N,Net-(Q1-G)*%
X118750000Y-97062500D03*
%TO.P,Q1,2,S_2*%
%TO.N,Net-(Q1-S)*%
X120650000Y-97062500D03*
%TO.P,Q1,3,D_3*%
%TO.N,Net-(Q1-D)*%
X119700000Y-98937500D03*
%TD*%
D10*
%TO.P,Q1,1,G_1*%
%TO.N,Net-(Q1-G)*%
X135100000Y-109900000D03*
D11*
%TO.P,Q1,2,D_2*%
%TO.N,Net-(Q1-D)*%
X137640000Y-109900000D03*
%TO.P,Q1,3,S_3*%
%TO.N,Net-(Q1-S)*%
X140180000Y-109900000D03*
%TD*%
D10*
%TO.P,Q1,1,G_1*%
%TO.N,Net-(Q1-G)*%
X144100000Y-101700000D03*
D11*
%TO.P,Q1,2,D_2*%
%TO.N,Net-(Q1-D)*%
X146640000Y-101700000D03*
%TO.P,Q1,3,S_3*%
%TO.N,Net-(Q1-S)*%
X149180000Y-101700000D03*
%TD*%
D10*
%TO.P,Q1,1,G_1*%
%TO.N,Net-(Q1-G)*%
X126100000Y-101700000D03*
D11*
%TO.P,Q1,2,D_2*%
%TO.N,Net-(Q1-D)*%
X128640000Y-101700000D03*
%TO.P,Q1,3,S_3*%
%TO.N,Net-(Q1-S)*%
X131180000Y-101700000D03*
%TD*%
D10*
%TO.P,Q1,1,G_1*%
%TO.N,Net-(Q1-G)*%
X135100000Y-101700000D03*
D11*
%TO.P,Q1,2,D_2*%
%TO.N,Net-(Q1-D)*%
X137640000Y-101700000D03*
%TO.P,Q1,3,S_3*%
%TO.N,Net-(Q1-S)*%
X140180000Y-101700000D03*
%TD*%
D12*
%TO.P,Q1,1,G_1*%
%TO.N,Net-(Q1-G)*%
X145750000Y-97062500D03*
%TO.P,Q1,2,S_2*%
%TO.N,Net-(Q1-S)*%
X147650000Y-97062500D03*
%TO.P,Q1,3,D_3*%
%TO.N,Net-(Q1-D)*%
X146700000Y-98937500D03*
%TD*%
%TO.P,Q1,1,G_1*%
%TO.N,Net-(Q1-G)*%
X136750000Y-105262500D03*
%TO.P,Q1,2,S_2*%
%TO.N,Net-(Q1-S)*%
X138650000Y-105262500D03*
%TO.P,Q1,3,D_3*%
%TO.N,Net-(Q1-D)*%
X137700000Y-107137500D03*
%TD*%
%TO.P,Q1,1,G_1*%
%TO.N,Net-(Q1-G)*%
X136750000Y-97062500D03*
%TO.P,Q1,2,S_2*%
%TO.N,Net-(Q1-S)*%
X138650000Y-97062500D03*
%TO.P,Q1,3,D_3*%
%TO.N,Net-(Q1-D)*%
X137700000Y-98937500D03*
%TD*%
D10*
%TO.P,Q1,1,G_1*%
%TO.N,Net-(Q1-G)*%
X126100000Y-109900000D03*
D11*
%TO.P,Q1,2,D_2*%
%TO.N,Net-(Q1-D)*%
X128640000Y-109900000D03*
%TO.P,Q1,3,S_3*%
%TO.N,Net-(Q1-S)*%
X131180000Y-109900000D03*
%TD*%
D12*
%TO.P,Q1,1,G_1*%
%TO.N,Net-(Q1-G)*%
X127750000Y-97062500D03*
%TO.P,Q1,2,S_2*%
%TO.N,Net-(Q1-S)*%
X129650000Y-97062500D03*
%TO.P,Q1,3,D_3*%
%TO.N,Net-(Q1-D)*%
X128700000Y-98937500D03*
%TD*%
%TO.P,Q1,1,G_1*%
%TO.N,Net-(Q1-G)*%
X145750000Y-105262500D03*
%TO.P,Q1,2,S_2*%
%TO.N,Net-(Q1-S)*%
X147650000Y-105262500D03*
%TO.P,Q1,3,D_3*%
%TO.N,Net-(Q1-D)*%
X146700000Y-107137500D03*
%TD*%
%TO.N,Net-(Q1-G)*%
D13*
X135100000Y-106912500D02*
X136750000Y-105262500D01*
X117100000Y-101800000D02*
X117100000Y-98712500D01*
X135100000Y-98712500D02*
X136750000Y-97062500D01*
X117100000Y-110000000D02*
X117100000Y-106912500D01*
X126100000Y-98712500D02*
X127750000Y-97062500D01*
X144100000Y-110000000D02*
X144100000Y-106912500D01*
X117100000Y-106912500D02*
X118750000Y-105262500D01*
X144100000Y-98712500D02*
X145750000Y-97062500D01*
X117100000Y-98712500D02*
X118750000Y-97062500D01*
X135100000Y-101800000D02*
X135100000Y-98712500D01*
X144100000Y-106912500D02*
X145750000Y-105262500D01*
X135100000Y-110000000D02*
X135100000Y-106912500D01*
X126100000Y-101800000D02*
X126100000Y-98712500D01*
X126100000Y-110000000D02*
X126100000Y-106912500D01*
X126100000Y-106912500D02*
X127750000Y-105262500D01*
X144100000Y-101800000D02*
X144100000Y-98712500D01*
%TO.N,Net-(Q1-D)*%
X146640000Y-110000000D02*
X146640000Y-107197500D01*
X128640000Y-101800000D02*
X128640000Y-98997500D01*
X119640000Y-110000000D02*
X119640000Y-107197500D01*
X137640000Y-101800000D02*
X137640000Y-98997500D01*
X119640000Y-101800000D02*
X119640000Y-98997500D01*
X128640000Y-110000000D02*
X128640000Y-107197500D01*
X146640000Y-101800000D02*
X146640000Y-98997500D01*
X137640000Y-110000000D02*
X137640000Y-107197500D01*
%TO.N,Net-(Q1-S)*%
X149180000Y-110000000D02*
X149180000Y-106792500D01*
X140180000Y-110000000D02*
X140180000Y-106792500D01*
X122180000Y-106792500D02*
X120650000Y-105262500D01*
X140180000Y-98592500D02*
X138650000Y-97062500D01*
X122180000Y-98592500D02*
X120650000Y-97062500D01*
X122180000Y-101800000D02*
X122180000Y-98592500D01*
X149180000Y-106792500D02*
X147650000Y-105262500D01*
X131180000Y-101800000D02*
X131180000Y-98592500D01*
X149180000Y-101800000D02*
X149180000Y-98592500D01*
X131180000Y-98592500D02*
X129650000Y-97062500D01*
X140180000Y-106792500D02*
X138650000Y-105262500D01*
X122180000Y-110000000D02*
X122180000Y-106792500D01*
X140180000Y-101800000D02*
X140180000Y-98592500D01*
X131180000Y-110000000D02*
X131180000Y-106792500D01*
X149180000Y-98592500D02*
X147650000Y-97062500D01*
X131180000Y-106792500D02*
X129650000Y-105262500D01*
%TD*%
%TA.AperFunction,NonConductor*%
G36*
X147374203Y-95620185D02*
G01*
X147419958Y-95672989D01*
X147429902Y-95742147D01*
X147400877Y-95805703D01*
X147342099Y-95843477D01*
X147341759Y-95843576D01*
X147239606Y-95873254D01*
X147239603Y-95873255D01*
X147098137Y-95956917D01*
X147098129Y-95956923D01*
X146981923Y-96073129D01*
X146981917Y-96073137D01*
X146898255Y-96214603D01*
X146898254Y-96214606D01*
X146852402Y-96372426D01*
X146852401Y-96372432D01*
X146849500Y-96409298D01*
X146849500Y-96422066D01*
X146829815Y-96489105D01*
X146828601Y-96490958D01*
X146803100Y-96529122D01*
X146749488Y-96573926D01*
X146680163Y-96582633D01*
X146617135Y-96552478D01*
X146596898Y-96529122D01*
X146571396Y-96490955D01*
X146550520Y-96424279D01*
X146550500Y-96422067D01*
X146550500Y-96409313D01*
X146550499Y-96409298D01*
X146550222Y-96405782D01*
X146547598Y-96372431D01*
X146501744Y-96214602D01*
X146418081Y-96073135D01*
X146418079Y-96073133D01*
X146418076Y-96073129D01*
X146301870Y-95956923D01*
X146301862Y-95956917D01*
X146160396Y-95873255D01*
X146160393Y-95873254D01*
X146058241Y-95843576D01*
X145999355Y-95805970D01*
X145970149Y-95742497D01*
X145979895Y-95673311D01*
X146025499Y-95620376D01*
X146092482Y-95600501D01*
X146092836Y-95600500D01*
X147307164Y-95600500D01*
X147374203Y-95620185D01*
G37*
%TD.AperFunction*%
%TA.AperFunction,NonConductor*%
G36*
X138374203Y-95620185D02*
G01*
X138419958Y-95672989D01*
X138429902Y-95742147D01*
X138400877Y-95805703D01*
X138342099Y-95843477D01*
X138341759Y-95843576D01*
X138239606Y-95873254D01*
X138239603Y-95873255D01*
X138098137Y-95956917D01*
X138098129Y-95956923D01*
X137981923Y-96073129D01*
X137981917Y-96073137D01*
X137898255Y-96214603D01*
X137898254Y-96214606D01*
X137852402Y-96372426D01*
X137852401Y-96372432D01*
X137849500Y-96409298D01*
X137849500Y-96422066D01*
X137829815Y-96489105D01*
X137828601Y-96490958D01*
X137803100Y-96529122D01*
X137749488Y-96573926D01*
X137680163Y-96582633D01*
X137617135Y-96552478D01*
X137596898Y-96529122D01*
X137571396Y-96490955D01*
X137550520Y-96424279D01*
X137550500Y-96422067D01*
X137550500Y-96409313D01*
X137550499Y-96409298D01*
X137550222Y-96405782D01*
X137547598Y-96372431D01*
X137501744Y-96214602D01*
X137418081Y-96073135D01*
X137418079Y-96073133D01*
X137418076Y-96073129D01*
X137301870Y-95956923D01*
X137301862Y-95956917D01*
X137160396Y-95873255D01*
X137160393Y-95873254D01*
X137058241Y-95843576D01*
X136999355Y-95805970D01*
X136970149Y-95742497D01*
X136979895Y-95673311D01*
X137025499Y-95620376D01*
X137092482Y-95600501D01*
X137092836Y-95600500D01*
X138307164Y-95600500D01*
X138374203Y-95620185D01*
G37*
%TD.AperFunction*%
%TA.AperFunction,NonConductor*%
G36*
X129374203Y-95620185D02*
G01*
X129419958Y-95672989D01*
X129429902Y-95742147D01*
X129400877Y-95805703D01*
X129342099Y-95843477D01*
X129341759Y-95843576D01*
X129239606Y-95873254D01*
X129239603Y-95873255D01*
X129098137Y-95956917D01*
X129098129Y-95956923D01*
X128981923Y-96073129D01*
X128981917Y-96073137D01*
X128898255Y-96214603D01*
X128898254Y-96214606D01*
X128852402Y-96372426D01*
X128852401Y-96372432D01*
X128849500Y-96409298D01*
X128849500Y-96422066D01*
X128829815Y-96489105D01*
X128828601Y-96490958D01*
X128803100Y-96529122D01*
X128749488Y-96573926D01*
X128680163Y-96582633D01*
X128617135Y-96552478D01*
X128596898Y-96529122D01*
X128571396Y-96490955D01*
X128550520Y-96424279D01*
X128550500Y-96422067D01*
X128550500Y-96409313D01*
X128550499Y-96409298D01*
X128550222Y-96405782D01*
X128547598Y-96372431D01*
X128501744Y-96214602D01*
X128418081Y-96073135D01*
X128418079Y-96073133D01*
X128418076Y-96073129D01*
X128301870Y-95956923D01*
X128301862Y-95956917D01*
X128160396Y-95873255D01*
X128160393Y-95873254D01*
X128058241Y-95843576D01*
X127999355Y-95805970D01*
X127970149Y-95742497D01*
X127979895Y-95673311D01*
X128025499Y-95620376D01*
X128092482Y-95600501D01*
X128092836Y-95600500D01*
X129307164Y-95600500D01*
X129374203Y-95620185D01*
G37*
%TD.AperFunction*%
%TA.AperFunction,NonConductor*%
G36*
X120374203Y-95620185D02*
G01*
X120419958Y-95672989D01*
X120429902Y-95742147D01*
X120400877Y-95805703D01*
X120342099Y-95843477D01*
X120341759Y-95843576D01*
X120239606Y-95873254D01*
X120239603Y-95873255D01*
X120098137Y-95956917D01*
X120098129Y-95956923D01*
X119981923Y-96073129D01*
X119981917Y-96073137D01*
X119898255Y-96214603D01*
X119898254Y-96214606D01*
X119852402Y-96372426D01*
X119852401Y-96372432D01*
X119849500Y-96409298D01*
X119849500Y-96422066D01*
X119829815Y-96489105D01*
X119828601Y-96490958D01*
X119803100Y-96529122D01*
X119749488Y-96573926D01*
X119680163Y-96582633D01*
X119617135Y-96552478D01*
X119596898Y-96529122D01*
X119571396Y-96490955D01*
X119550520Y-96424279D01*
X119550500Y-96422067D01*
X119550500Y-96409313D01*
X119550499Y-96409298D01*
X119550222Y-96405782D01*
X119547598Y-96372431D01*
X119501744Y-96214602D01*
X119418081Y-96073135D01*
X119418079Y-96073133D01*
X119418076Y-96073129D01*
X119301870Y-95956923D01*
X119301862Y-95956917D01*
X119160396Y-95873255D01*
X119160393Y-95873254D01*
X119058241Y-95843576D01*
X118999355Y-95805970D01*
X118970149Y-95742497D01*
X118979895Y-95673311D01*
X119025499Y-95620376D01*
X119092482Y-95600501D01*
X119092836Y-95600500D01*
X120307164Y-95600500D01*
X120374203Y-95620185D01*
G37*
%TD.AperFunction*%
%TA.AperFunction,NonConductor*%
G36*
X145559443Y-98770489D02*
G01*
X145615377Y-98812360D01*
X145639794Y-98877825D01*
X145639513Y-98898820D01*
X145639500Y-98898952D01*
X145639500Y-100276408D01*
X145619815Y-100343447D01*
X145567011Y-100389202D01*
X145497853Y-100399146D01*
X145434297Y-100370121D01*
X145416235Y-100350721D01*
X145410046Y-100342454D01*
X145410044Y-100342452D01*
X145294835Y-100256206D01*
X145294830Y-100256203D01*
X145181166Y-100213809D01*
X145125233Y-100171937D01*
X145100816Y-100106473D01*
X145100500Y-100097627D01*
X145100500Y-99178282D01*
X145120185Y-99111243D01*
X145136819Y-99090601D01*
X145256819Y-98970601D01*
X145428431Y-98798988D01*
X145489752Y-98765505D01*
X145559443Y-98770489D01*
G37*
%TD.AperFunction*%
%TA.AperFunction,NonConductor*%
G36*
X136559443Y-98770489D02*
G01*
X136615377Y-98812360D01*
X136639794Y-98877825D01*
X136639513Y-98898820D01*
X136639500Y-98898952D01*
X136639500Y-100276408D01*
X136619815Y-100343447D01*
X136567011Y-100389202D01*
X136497853Y-100399146D01*
X136434297Y-100370121D01*
X136416235Y-100350721D01*
X136410046Y-100342454D01*
X136410044Y-100342452D01*
X136294835Y-100256206D01*
X136294830Y-100256203D01*
X136181166Y-100213809D01*
X136125233Y-100171937D01*
X136100816Y-100106473D01*
X136100500Y-100097627D01*
X136100500Y-99178282D01*
X136120185Y-99111243D01*
X136136819Y-99090601D01*
X136256819Y-98970601D01*
X136428431Y-98798988D01*
X136489752Y-98765505D01*
X136559443Y-98770489D01*
G37*
%TD.AperFunction*%
%TA.AperFunction,NonConductor*%
G36*
X127559443Y-98770489D02*
G01*
X127615377Y-98812360D01*
X127639794Y-98877825D01*
X127639513Y-98898820D01*
X127639500Y-98898952D01*
X127639500Y-100276408D01*
X127619815Y-100343447D01*
X127567011Y-100389202D01*
X127497853Y-100399146D01*
X127434297Y-100370121D01*
X127416235Y-100350721D01*
X127410046Y-100342454D01*
X127410044Y-100342452D01*
X127294835Y-100256206D01*
X127294830Y-100256203D01*
X127181166Y-100213809D01*
X127125233Y-100171937D01*
X127100816Y-100106473D01*
X127100500Y-100097627D01*
X127100500Y-99178282D01*
X127120185Y-99111243D01*
X127136819Y-99090601D01*
X127256819Y-98970601D01*
X127428431Y-98798988D01*
X127489752Y-98765505D01*
X127559443Y-98770489D01*
G37*
%TD.AperFunction*%
%TA.AperFunction,NonConductor*%
G36*
X118559443Y-98770489D02*
G01*
X118615377Y-98812360D01*
X118639794Y-98877825D01*
X118639513Y-98898820D01*
X118639500Y-98898952D01*
X118639500Y-100276408D01*
X118619815Y-100343447D01*
X118567011Y-100389202D01*
X118497853Y-100399146D01*
X118434297Y-100370121D01*
X118416235Y-100350721D01*
X118410046Y-100342454D01*
X118410044Y-100342452D01*
X118294835Y-100256206D01*
X118294830Y-100256203D01*
X118181166Y-100213809D01*
X118125233Y-100171937D01*
X118100816Y-100106473D01*
X118100500Y-100097627D01*
X118100500Y-99178282D01*
X118120185Y-99111243D01*
X118136819Y-99090601D01*
X118256819Y-98970601D01*
X118428431Y-98798988D01*
X118489752Y-98765505D01*
X118559443Y-98770489D01*
G37*
%TD.AperFunction*%
%TA.AperFunction,NonConductor*%
G36*
X147796195Y-98629863D02*
G01*
X147822517Y-98649937D01*
X148143181Y-98970601D01*
X148176666Y-99031924D01*
X148179500Y-99058282D01*
X148179500Y-100546786D01*
X148159815Y-100613825D01*
X148143181Y-100634467D01*
X148071716Y-100705931D01*
X148071715Y-100705932D01*
X148010318Y-100790438D01*
X147954987Y-100833103D01*
X147885374Y-100839082D01*
X147823579Y-100806476D01*
X147809682Y-100790438D01*
X147798773Y-100775423D01*
X147748286Y-100705934D01*
X147676819Y-100634467D01*
X147643334Y-100573144D01*
X147640500Y-100546786D01*
X147640500Y-98898956D01*
X147613219Y-98761810D01*
X147619446Y-98692218D01*
X147662309Y-98637041D01*
X147728198Y-98613796D01*
X147796195Y-98629863D01*
G37*
%TD.AperFunction*%
%TA.AperFunction,NonConductor*%
G36*
X138796195Y-98629863D02*
G01*
X138822517Y-98649937D01*
X139143181Y-98970601D01*
X139176666Y-99031924D01*
X139179500Y-99058282D01*
X139179500Y-100546786D01*
X139159815Y-100613825D01*
X139143181Y-100634467D01*
X139071716Y-100705931D01*
X139071715Y-100705932D01*
X139010318Y-100790438D01*
X138954987Y-100833103D01*
X138885374Y-100839082D01*
X138823579Y-100806476D01*
X138809682Y-100790438D01*
X138798773Y-100775423D01*
X138748286Y-100705934D01*
X138676819Y-100634467D01*
X138643334Y-100573144D01*
X138640500Y-100546786D01*
X138640500Y-98898956D01*
X138613219Y-98761810D01*
X138619446Y-98692218D01*
X138662309Y-98637041D01*
X138728198Y-98613796D01*
X138796195Y-98629863D01*
G37*
%TD.AperFunction*%
%TA.AperFunction,NonConductor*%
G36*
X129796195Y-98629863D02*
G01*
X129822517Y-98649937D01*
X130143181Y-98970601D01*
X130176666Y-99031924D01*
X130179500Y-99058282D01*
X130179500Y-100546786D01*
X130159815Y-100613825D01*
X130143181Y-100634467D01*
X130071716Y-100705931D01*
X130071715Y-100705932D01*
X130010318Y-100790438D01*
X129954987Y-100833103D01*
X129885374Y-100839082D01*
X129823579Y-100806476D01*
X129809682Y-100790438D01*
X129798773Y-100775423D01*
X129748286Y-100705934D01*
X129676819Y-100634467D01*
X129643334Y-100573144D01*
X129640500Y-100546786D01*
X129640500Y-98898956D01*
X129613219Y-98761810D01*
X129619446Y-98692218D01*
X129662309Y-98637041D01*
X129728198Y-98613796D01*
X129796195Y-98629863D01*
G37*
%TD.AperFunction*%
%TA.AperFunction,NonConductor*%
G36*
X120796195Y-98629863D02*
G01*
X120822517Y-98649937D01*
X121143181Y-98970601D01*
X121176666Y-99031924D01*
X121179500Y-99058282D01*
X121179500Y-100546786D01*
X121159815Y-100613825D01*
X121143181Y-100634467D01*
X121071716Y-100705931D01*
X121071715Y-100705932D01*
X121010318Y-100790438D01*
X120954987Y-100833103D01*
X120885374Y-100839082D01*
X120823579Y-100806476D01*
X120809682Y-100790438D01*
X120798773Y-100775423D01*
X120748286Y-100705934D01*
X120676819Y-100634467D01*
X120643334Y-100573144D01*
X120640500Y-100546786D01*
X120640500Y-98898956D01*
X120613219Y-98761810D01*
X120619446Y-98692218D01*
X120662309Y-98637041D01*
X120728198Y-98613796D01*
X120796195Y-98629863D01*
G37*
%TD.AperFunction*%
%TA.AperFunction,NonConductor*%
G36*
X145559443Y-106970489D02*
G01*
X145615377Y-107012360D01*
X145639794Y-107077825D01*
X145639513Y-107098820D01*
X145639500Y-107098952D01*
X145639500Y-108476408D01*
X145619815Y-108543447D01*
X145567011Y-108589202D01*
X145497853Y-108599146D01*
X145434297Y-108570121D01*
X145416235Y-108550721D01*
X145410046Y-108542454D01*
X145410044Y-108542452D01*
X145294835Y-108456206D01*
X145294830Y-108456203D01*
X145181166Y-108413809D01*
X145125233Y-108371937D01*
X145100816Y-108306473D01*
X145100500Y-108297627D01*
X145100500Y-107378282D01*
X145120185Y-107311243D01*
X145136819Y-107290601D01*
X145256819Y-107170601D01*
X145428431Y-106998988D01*
X145489752Y-106965505D01*
X145559443Y-106970489D01*
G37*
%TD.AperFunction*%
%TA.AperFunction,NonConductor*%
G36*
X136559443Y-106970489D02*
G01*
X136615377Y-107012360D01*
X136639794Y-107077825D01*
X136639513Y-107098820D01*
X136639500Y-107098952D01*
X136639500Y-108476408D01*
X136619815Y-108543447D01*
X136567011Y-108589202D01*
X136497853Y-108599146D01*
X136434297Y-108570121D01*
X136416235Y-108550721D01*
X136410046Y-108542454D01*
X136410044Y-108542452D01*
X136294835Y-108456206D01*
X136294830Y-108456203D01*
X136181166Y-108413809D01*
X136125233Y-108371937D01*
X136100816Y-108306473D01*
X136100500Y-108297627D01*
X136100500Y-107378282D01*
X136120185Y-107311243D01*
X136136819Y-107290601D01*
X136256819Y-107170601D01*
X136428431Y-106998988D01*
X136489752Y-106965505D01*
X136559443Y-106970489D01*
G37*
%TD.AperFunction*%
%TA.AperFunction,NonConductor*%
G36*
X127559443Y-106970489D02*
G01*
X127615377Y-107012360D01*
X127639794Y-107077825D01*
X127639513Y-107098820D01*
X127639500Y-107098952D01*
X127639500Y-108476408D01*
X127619815Y-108543447D01*
X127567011Y-108589202D01*
X127497853Y-108599146D01*
X127434297Y-108570121D01*
X127416235Y-108550721D01*
X127410046Y-108542454D01*
X127410044Y-108542452D01*
X127294835Y-108456206D01*
X127294830Y-108456203D01*
X127181166Y-108413809D01*
X127125233Y-108371937D01*
X127100816Y-108306473D01*
X127100500Y-108297627D01*
X127100500Y-107378282D01*
X127120185Y-107311243D01*
X127136819Y-107290601D01*
X127256819Y-107170601D01*
X127428431Y-106998988D01*
X127489752Y-106965505D01*
X127559443Y-106970489D01*
G37*
%TD.AperFunction*%
%TA.AperFunction,NonConductor*%
G36*
X118559443Y-106970489D02*
G01*
X118615377Y-107012360D01*
X118639794Y-107077825D01*
X118639513Y-107098820D01*
X118639500Y-107098952D01*
X118639500Y-108476408D01*
X118619815Y-108543447D01*
X118567011Y-108589202D01*
X118497853Y-108599146D01*
X118434297Y-108570121D01*
X118416235Y-108550721D01*
X118410046Y-108542454D01*
X118410044Y-108542452D01*
X118294835Y-108456206D01*
X118294830Y-108456203D01*
X118181166Y-108413809D01*
X118125233Y-108371937D01*
X118100816Y-108306473D01*
X118100500Y-108297627D01*
X118100500Y-107378282D01*
X118120185Y-107311243D01*
X118136819Y-107290601D01*
X118256819Y-107170601D01*
X118428431Y-106998988D01*
X118489752Y-106965505D01*
X118559443Y-106970489D01*
G37*
%TD.AperFunction*%
%TA.AperFunction,NonConductor*%
G36*
X147796195Y-106829863D02*
G01*
X147822517Y-106849937D01*
X148143181Y-107170601D01*
X148176666Y-107231924D01*
X148179500Y-107258282D01*
X148179500Y-108746786D01*
X148159815Y-108813825D01*
X148143181Y-108834467D01*
X148071716Y-108905931D01*
X148071715Y-108905932D01*
X148010318Y-108990438D01*
X147954987Y-109033103D01*
X147885374Y-109039082D01*
X147823579Y-109006476D01*
X147809682Y-108990438D01*
X147798773Y-108975423D01*
X147748286Y-108905934D01*
X147676819Y-108834467D01*
X147643334Y-108773144D01*
X147640500Y-108746786D01*
X147640500Y-107098956D01*
X147613219Y-106961810D01*
X147619446Y-106892218D01*
X147662309Y-106837041D01*
X147728198Y-106813796D01*
X147796195Y-106829863D01*
G37*
%TD.AperFunction*%
%TA.AperFunction,NonConductor*%
G36*
X138796195Y-106829863D02*
G01*
X138822517Y-106849937D01*
X139143181Y-107170601D01*
X139176666Y-107231924D01*
X139179500Y-107258282D01*
X139179500Y-108746786D01*
X139159815Y-108813825D01*
X139143181Y-108834467D01*
X139071716Y-108905931D01*
X139071715Y-108905932D01*
X139010318Y-108990438D01*
X138954987Y-109033103D01*
X138885374Y-109039082D01*
X138823579Y-109006476D01*
X138809682Y-108990438D01*
X138798773Y-108975423D01*
X138748286Y-108905934D01*
X138676819Y-108834467D01*
X138643334Y-108773144D01*
X138640500Y-108746786D01*
X138640500Y-107098956D01*
X138613219Y-106961810D01*
X138619446Y-106892218D01*
X138662309Y-106837041D01*
X138728198Y-106813796D01*
X138796195Y-106829863D01*
G37*
%TD.AperFunction*%
%TA.AperFunction,NonConductor*%
G36*
X129796195Y-106829863D02*
G01*
X129822517Y-106849937D01*
X130143181Y-107170601D01*
X130176666Y-107231924D01*
X130179500Y-107258282D01*
X130179500Y-108746786D01*
X130159815Y-108813825D01*
X130143181Y-108834467D01*
X130071716Y-108905931D01*
X130071715Y-108905932D01*
X130010318Y-108990438D01*
X129954987Y-109033103D01*
X129885374Y-109039082D01*
X129823579Y-109006476D01*
X129809682Y-108990438D01*
X129798773Y-108975423D01*
X129748286Y-108905934D01*
X129676819Y-108834467D01*
X129643334Y-108773144D01*
X129640500Y-108746786D01*
X129640500Y-107098956D01*
X129613219Y-106961810D01*
X129619446Y-106892218D01*
X129662309Y-106837041D01*
X129728198Y-106813796D01*
X129796195Y-106829863D01*
G37*
%TD.AperFunction*%
%TA.AperFunction,NonConductor*%
G36*
X120796195Y-106829863D02*
G01*
X120822517Y-106849937D01*
X121143181Y-107170601D01*
X121176666Y-107231924D01*
X121179500Y-107258282D01*
X121179500Y-108746786D01*
X121159815Y-108813825D01*
X121143181Y-108834467D01*
X121071716Y-108905931D01*
X121071715Y-108905932D01*
X121010318Y-108990438D01*
X120954987Y-109033103D01*
X120885374Y-109039082D01*
X120823579Y-109006476D01*
X120809682Y-108990438D01*
X120798773Y-108975423D01*
X120748286Y-108905934D01*
X120676819Y-108834467D01*
X120643334Y-108773144D01*
X120640500Y-108746786D01*
X120640500Y-107098956D01*
X120613219Y-106961810D01*
X120619446Y-106892218D01*
X120662309Y-106837041D01*
X120728198Y-106813796D01*
X120796195Y-106829863D01*
G37*
%TD.AperFunction*%
%TA.AperFunction,NonConductor*%
G36*
X147996420Y-110793523D02*
G01*
X148010314Y-110809556D01*
X148071714Y-110894066D01*
X148233434Y-111055786D01*
X148418462Y-111190217D01*
X148550599Y-111257544D01*
X148622244Y-111294049D01*
X148817738Y-111357569D01*
X148875413Y-111397006D01*
X148902612Y-111461365D01*
X148890697Y-111530211D01*
X148843453Y-111581687D01*
X148779420Y-111599500D01*
X147040580Y-111599500D01*
X146973541Y-111579815D01*
X146927786Y-111527011D01*
X146917842Y-111457853D01*
X146946867Y-111394297D01*
X147002262Y-111357569D01*
X147197755Y-111294049D01*
X147197755Y-111294048D01*
X147197758Y-111294048D01*
X147401538Y-111190217D01*
X147586566Y-111055786D01*
X147748286Y-110894066D01*
X147809683Y-110809559D01*
X147865012Y-110766896D01*
X147934625Y-110760917D01*
X147996420Y-110793523D01*
G37*
%TD.AperFunction*%
%TA.AperFunction,NonConductor*%
G36*
X145682297Y-111048958D02*
G01*
X145695746Y-111057465D01*
X145878462Y-111190217D01*
X146010599Y-111257544D01*
X146082244Y-111294049D01*
X146277738Y-111357569D01*
X146335413Y-111397006D01*
X146362612Y-111461365D01*
X146350697Y-111530211D01*
X146303453Y-111581687D01*
X146239420Y-111599500D01*
X145296548Y-111599500D01*
X145229509Y-111579815D01*
X145183754Y-111527011D01*
X145173810Y-111457853D01*
X145202835Y-111394297D01*
X145253215Y-111359318D01*
X145294828Y-111343797D01*
X145294827Y-111343797D01*
X145294831Y-111343796D01*
X145410046Y-111257546D01*
X145496296Y-111142331D01*
X145506690Y-111114460D01*
X145548560Y-111058527D01*
X145614023Y-111034108D01*
X145682297Y-111048958D01*
G37*
%TD.AperFunction*%
%TA.AperFunction,NonConductor*%
G36*
X138996420Y-110793523D02*
G01*
X139010314Y-110809556D01*
X139071714Y-110894066D01*
X139233434Y-111055786D01*
X139418462Y-111190217D01*
X139550599Y-111257544D01*
X139622244Y-111294049D01*
X139817738Y-111357569D01*
X139875413Y-111397006D01*
X139902612Y-111461365D01*
X139890697Y-111530211D01*
X139843453Y-111581687D01*
X139779420Y-111599500D01*
X138040580Y-111599500D01*
X137973541Y-111579815D01*
X137927786Y-111527011D01*
X137917842Y-111457853D01*
X137946867Y-111394297D01*
X138002262Y-111357569D01*
X138197755Y-111294049D01*
X138197755Y-111294048D01*
X138197758Y-111294048D01*
X138401538Y-111190217D01*
X138586566Y-111055786D01*
X138748286Y-110894066D01*
X138809683Y-110809559D01*
X138865012Y-110766896D01*
X138934625Y-110760917D01*
X138996420Y-110793523D01*
G37*
%TD.AperFunction*%
%TA.AperFunction,NonConductor*%
G36*
X136682297Y-111048958D02*
G01*
X136695746Y-111057465D01*
X136878462Y-111190217D01*
X137010599Y-111257544D01*
X137082244Y-111294049D01*
X137277738Y-111357569D01*
X137335413Y-111397006D01*
X137362612Y-111461365D01*
X137350697Y-111530211D01*
X137303453Y-111581687D01*
X137239420Y-111599500D01*
X136296548Y-111599500D01*
X136229509Y-111579815D01*
X136183754Y-111527011D01*
X136173810Y-111457853D01*
X136202835Y-111394297D01*
X136253215Y-111359318D01*
X136294828Y-111343797D01*
X136294827Y-111343797D01*
X136294831Y-111343796D01*
X136410046Y-111257546D01*
X136496296Y-111142331D01*
X136506690Y-111114460D01*
X136548560Y-111058527D01*
X136614023Y-111034108D01*
X136682297Y-111048958D01*
G37*
%TD.AperFunction*%
%TA.AperFunction,NonConductor*%
G36*
X129996420Y-110793523D02*
G01*
X130010314Y-110809556D01*
X130071714Y-110894066D01*
X130233434Y-111055786D01*
X130418462Y-111190217D01*
X130550599Y-111257544D01*
X130622244Y-111294049D01*
X130817738Y-111357569D01*
X130875413Y-111397006D01*
X130902612Y-111461365D01*
X130890697Y-111530211D01*
X130843453Y-111581687D01*
X130779420Y-111599500D01*
X129040580Y-111599500D01*
X128973541Y-111579815D01*
X128927786Y-111527011D01*
X128917842Y-111457853D01*
X128946867Y-111394297D01*
X129002262Y-111357569D01*
X129197755Y-111294049D01*
X129197755Y-111294048D01*
X129197758Y-111294048D01*
X129401538Y-111190217D01*
X129586566Y-111055786D01*
X129748286Y-110894066D01*
X129809683Y-110809559D01*
X129865012Y-110766896D01*
X129934625Y-110760917D01*
X129996420Y-110793523D01*
G37*
%TD.AperFunction*%
%TA.AperFunction,NonConductor*%
G36*
X127682297Y-111048958D02*
G01*
X127695746Y-111057465D01*
X127878462Y-111190217D01*
X128010599Y-111257544D01*
X128082244Y-111294049D01*
X128277738Y-111357569D01*
X128335413Y-111397006D01*
X128362612Y-111461365D01*
X128350697Y-111530211D01*
X128303453Y-111581687D01*
X128239420Y-111599500D01*
X127296548Y-111599500D01*
X127229509Y-111579815D01*
X127183754Y-111527011D01*
X127173810Y-111457853D01*
X127202835Y-111394297D01*
X127253215Y-111359318D01*
X127294828Y-111343797D01*
X127294827Y-111343797D01*
X127294831Y-111343796D01*
X127410046Y-111257546D01*
X127496296Y-111142331D01*
X127506690Y-111114460D01*
X127548560Y-111058527D01*
X127614023Y-111034108D01*
X127682297Y-111048958D01*
G37*
%TD.AperFunction*%
%TA.AperFunction,NonConductor*%
G36*
X120996420Y-110793523D02*
G01*
X121010314Y-110809556D01*
X121071714Y-110894066D01*
X121233434Y-111055786D01*
X121418462Y-111190217D01*
X121550599Y-111257544D01*
X121622244Y-111294049D01*
X121817738Y-111357569D01*
X121875413Y-111397006D01*
X121902612Y-111461365D01*
X121890697Y-111530211D01*
X121843453Y-111581687D01*
X121779420Y-111599500D01*
X120040580Y-111599500D01*
X119973541Y-111579815D01*
X119927786Y-111527011D01*
X119917842Y-111457853D01*
X119946867Y-111394297D01*
X120002262Y-111357569D01*
X120197755Y-111294049D01*
X120197755Y-111294048D01*
X120197758Y-111294048D01*
X120401538Y-111190217D01*
X120586566Y-111055786D01*
X120748286Y-110894066D01*
X120809683Y-110809559D01*
X120865012Y-110766896D01*
X120934625Y-110760917D01*
X120996420Y-110793523D01*
G37*
%TD.AperFunction*%
%TA.AperFunction,NonConductor*%
G36*
X118682297Y-111048958D02*
G01*
X118695746Y-111057465D01*
X118878462Y-111190217D01*
X119010599Y-111257544D01*
X119082244Y-111294049D01*
X119277738Y-111357569D01*
X119335413Y-111397006D01*
X119362612Y-111461365D01*
X119350697Y-111530211D01*
X119303453Y-111581687D01*
X119239420Y-111599500D01*
X118296548Y-111599500D01*
X118229509Y-111579815D01*
X118183754Y-111527011D01*
X118173810Y-111457853D01*
X118202835Y-111394297D01*
X118253215Y-111359318D01*
X118294828Y-111343797D01*
X118294827Y-111343797D01*
X118294831Y-111343796D01*
X118410046Y-111257546D01*
X118496296Y-111142331D01*
X118506690Y-111114460D01*
X118548560Y-111058527D01*
X118614023Y-111034108D01*
X118682297Y-111048958D01*
G37*
%TD.AperFunction*%
%TA.AperFunction,NonConductor*%
G36*
X118474203Y-95620185D02*
G01*
X118519958Y-95672989D01*
X118529902Y-95742147D01*
X118500877Y-95805703D01*
X118442099Y-95843477D01*
X118441759Y-95843576D01*
X118339606Y-95873254D01*
X118339603Y-95873255D01*
X118198137Y-95956917D01*
X118198129Y-95956923D01*
X118081923Y-96073129D01*
X118081917Y-96073137D01*
X117998255Y-96214603D01*
X117998254Y-96214606D01*
X117952402Y-96372426D01*
X117952401Y-96372432D01*
X117949777Y-96405785D01*
X117924893Y-96471074D01*
X117913840Y-96483738D01*
X117014150Y-97383429D01*
X116462220Y-97935359D01*
X116462218Y-97935361D01*
X116392538Y-98005040D01*
X116322859Y-98074719D01*
X116213371Y-98238579D01*
X116213364Y-98238592D01*
X116137950Y-98420660D01*
X116137947Y-98420670D01*
X116099500Y-98613956D01*
X116099500Y-100097627D01*
X116079815Y-100164666D01*
X116027011Y-100210421D01*
X116018834Y-100213809D01*
X115905169Y-100256203D01*
X115905164Y-100256206D01*
X115789955Y-100342452D01*
X115789952Y-100342455D01*
X115703706Y-100457664D01*
X115703702Y-100457671D01*
X115653408Y-100592517D01*
X115647001Y-100652116D01*
X115647000Y-100652135D01*
X115647000Y-102747870D01*
X115647001Y-102747876D01*
X115653408Y-102807483D01*
X115703702Y-102942328D01*
X115703706Y-102942335D01*
X115789952Y-103057544D01*
X115789955Y-103057547D01*
X115905164Y-103143793D01*
X115905171Y-103143797D01*
X116040017Y-103194091D01*
X116040016Y-103194091D01*
X116046944Y-103194835D01*
X116099627Y-103200500D01*
X118100372Y-103200499D01*
X118159983Y-103194091D01*
X118294831Y-103143796D01*
X118410046Y-103057546D01*
X118496296Y-102942331D01*
X118506690Y-102914460D01*
X118548560Y-102858527D01*
X118614023Y-102834108D01*
X118682297Y-102848958D01*
X118695746Y-102857465D01*
X118878462Y-102990217D01*
X119010599Y-103057544D01*
X119082244Y-103094049D01*
X119299751Y-103164721D01*
X119299752Y-103164721D01*
X119299755Y-103164722D01*
X119525646Y-103200500D01*
X119525647Y-103200500D01*
X119754353Y-103200500D01*
X119754354Y-103200500D01*
X119980245Y-103164722D01*
X119980248Y-103164721D01*
X119980249Y-103164721D01*
X120197755Y-103094049D01*
X120197755Y-103094048D01*
X120197758Y-103094048D01*
X120401538Y-102990217D01*
X120586566Y-102855786D01*
X120748286Y-102694066D01*
X120809683Y-102609559D01*
X120865012Y-102566896D01*
X120934625Y-102560917D01*
X120996420Y-102593523D01*
X121010314Y-102609556D01*
X121071714Y-102694066D01*
X121233434Y-102855786D01*
X121418462Y-102990217D01*
X121550599Y-103057544D01*
X121622244Y-103094049D01*
X121839751Y-103164721D01*
X121839752Y-103164721D01*
X121839755Y-103164722D01*
X122065646Y-103200500D01*
X122065647Y-103200500D01*
X122294353Y-103200500D01*
X122294354Y-103200500D01*
X122520245Y-103164722D01*
X122520248Y-103164721D01*
X122520249Y-103164721D01*
X122737755Y-103094049D01*
X122737755Y-103094048D01*
X122737758Y-103094048D01*
X122941538Y-102990217D01*
X123126566Y-102855786D01*
X123288286Y-102694066D01*
X123422717Y-102509038D01*
X123526548Y-102305258D01*
X123597222Y-102087745D01*
X123633000Y-101861854D01*
X123633000Y-101538146D01*
X123597222Y-101312255D01*
X123597221Y-101312251D01*
X123597221Y-101312250D01*
X123526549Y-101094744D01*
X123526548Y-101094742D01*
X123422717Y-100890962D01*
X123288286Y-100705934D01*
X123216819Y-100634467D01*
X123183334Y-100573144D01*
X123180500Y-100546786D01*
X123180500Y-98493956D01*
X123142052Y-98300670D01*
X123142051Y-98300669D01*
X123142051Y-98300665D01*
X123116337Y-98238586D01*
X123066635Y-98118592D01*
X123066628Y-98118579D01*
X122957140Y-97954719D01*
X122937780Y-97935359D01*
X122817782Y-97815361D01*
X122817781Y-97815360D01*
X121486159Y-96483738D01*
X121452674Y-96422415D01*
X121450223Y-96405791D01*
X121447598Y-96372431D01*
X121401744Y-96214602D01*
X121318081Y-96073135D01*
X121318079Y-96073133D01*
X121318076Y-96073129D01*
X121201870Y-95956923D01*
X121201862Y-95956917D01*
X121060396Y-95873255D01*
X121060393Y-95873254D01*
X120958241Y-95843576D01*
X120899355Y-95805970D01*
X120870149Y-95742497D01*
X120879895Y-95673311D01*
X120925499Y-95620376D01*
X120992482Y-95600501D01*
X120992836Y-95600500D01*
X127407164Y-95600500D01*
X127474203Y-95620185D01*
X127519958Y-95672989D01*
X127529902Y-95742147D01*
X127500877Y-95805703D01*
X127442099Y-95843477D01*
X127441759Y-95843576D01*
X127339606Y-95873254D01*
X127339603Y-95873255D01*
X127198137Y-95956917D01*
X127198129Y-95956923D01*
X127081923Y-96073129D01*
X127081917Y-96073137D01*
X126998255Y-96214603D01*
X126998254Y-96214606D01*
X126952402Y-96372426D01*
X126952401Y-96372432D01*
X126949777Y-96405785D01*
X126924893Y-96471074D01*
X126913840Y-96483738D01*
X126014150Y-97383429D01*
X125462220Y-97935359D01*
X125462218Y-97935361D01*
X125392538Y-98005040D01*
X125322859Y-98074719D01*
X125213371Y-98238579D01*
X125213364Y-98238592D01*
X125137950Y-98420660D01*
X125137947Y-98420670D01*
X125099500Y-98613956D01*
X125099500Y-100097627D01*
X125079815Y-100164666D01*
X125027011Y-100210421D01*
X125018834Y-100213809D01*
X124905169Y-100256203D01*
X124905164Y-100256206D01*
X124789955Y-100342452D01*
X124789952Y-100342455D01*
X124703706Y-100457664D01*
X124703702Y-100457671D01*
X124653408Y-100592517D01*
X124647001Y-100652116D01*
X124647000Y-100652135D01*
X124647000Y-102747870D01*
X124647001Y-102747876D01*
X124653408Y-102807483D01*
X124703702Y-102942328D01*
X124703706Y-102942335D01*
X124789952Y-103057544D01*
X124789955Y-103057547D01*
X124905164Y-103143793D01*
X124905171Y-103143797D01*
X125040017Y-103194091D01*
X125040016Y-103194091D01*
X125046944Y-103194835D01*
X125099627Y-103200500D01*
X127100372Y-103200499D01*
X127159983Y-103194091D01*
X127294831Y-103143796D01*
X127410046Y-103057546D01*
X127496296Y-102942331D01*
X127506690Y-102914460D01*
X127548560Y-102858527D01*
X127614023Y-102834108D01*
X127682297Y-102848958D01*
X127695746Y-102857465D01*
X127878462Y-102990217D01*
X128010599Y-103057544D01*
X128082244Y-103094049D01*
X128299751Y-103164721D01*
X128299752Y-103164721D01*
X128299755Y-103164722D01*
X128525646Y-103200500D01*
X128525647Y-103200500D01*
X128754353Y-103200500D01*
X128754354Y-103200500D01*
X128980245Y-103164722D01*
X128980248Y-103164721D01*
X128980249Y-103164721D01*
X129197755Y-103094049D01*
X129197755Y-103094048D01*
X129197758Y-103094048D01*
X129401538Y-102990217D01*
X129586566Y-102855786D01*
X129748286Y-102694066D01*
X129809683Y-102609559D01*
X129865012Y-102566896D01*
X129934625Y-102560917D01*
X129996420Y-102593523D01*
X130010314Y-102609556D01*
X130071714Y-102694066D01*
X130233434Y-102855786D01*
X130418462Y-102990217D01*
X130550599Y-103057544D01*
X130622244Y-103094049D01*
X130839751Y-103164721D01*
X130839752Y-103164721D01*
X130839755Y-103164722D01*
X131065646Y-103200500D01*
X131065647Y-103200500D01*
X131294353Y-103200500D01*
X131294354Y-103200500D01*
X131520245Y-103164722D01*
X131520248Y-103164721D01*
X131520249Y-103164721D01*
X131737755Y-103094049D01*
X131737755Y-103094048D01*
X131737758Y-103094048D01*
X131941538Y-102990217D01*
X132126566Y-102855786D01*
X132288286Y-102694066D01*
X132422717Y-102509038D01*
X132526548Y-102305258D01*
X132597222Y-102087745D01*
X132633000Y-101861854D01*
X132633000Y-101538146D01*
X132597222Y-101312255D01*
X132597221Y-101312251D01*
X132597221Y-101312250D01*
X132526549Y-101094744D01*
X132526548Y-101094742D01*
X132422717Y-100890962D01*
X132288286Y-100705934D01*
X132216819Y-100634467D01*
X132183334Y-100573144D01*
X132180500Y-100546786D01*
X132180500Y-98493956D01*
X132142052Y-98300670D01*
X132142051Y-98300669D01*
X132142051Y-98300665D01*
X132116337Y-98238586D01*
X132066635Y-98118592D01*
X132066628Y-98118579D01*
X131957140Y-97954719D01*
X131937780Y-97935359D01*
X131817782Y-97815361D01*
X131817781Y-97815360D01*
X130486159Y-96483738D01*
X130452674Y-96422415D01*
X130450223Y-96405791D01*
X130447598Y-96372431D01*
X130401744Y-96214602D01*
X130318081Y-96073135D01*
X130318079Y-96073133D01*
X130318076Y-96073129D01*
X130201870Y-95956923D01*
X130201862Y-95956917D01*
X130060396Y-95873255D01*
X130060393Y-95873254D01*
X129958241Y-95843576D01*
X129899355Y-95805970D01*
X129870149Y-95742497D01*
X129879895Y-95673311D01*
X129925499Y-95620376D01*
X129992482Y-95600501D01*
X129992836Y-95600500D01*
X136407164Y-95600500D01*
X136474203Y-95620185D01*
X136519958Y-95672989D01*
X136529902Y-95742147D01*
X136500877Y-95805703D01*
X136442099Y-95843477D01*
X136441759Y-95843576D01*
X136339606Y-95873254D01*
X136339603Y-95873255D01*
X136198137Y-95956917D01*
X136198129Y-95956923D01*
X136081923Y-96073129D01*
X136081917Y-96073137D01*
X135998255Y-96214603D01*
X135998254Y-96214606D01*
X135952402Y-96372426D01*
X135952401Y-96372432D01*
X135949777Y-96405785D01*
X135924893Y-96471074D01*
X135913840Y-96483738D01*
X135014150Y-97383429D01*
X134462220Y-97935359D01*
X134462218Y-97935361D01*
X134392538Y-98005040D01*
X134322859Y-98074719D01*
X134213371Y-98238579D01*
X134213364Y-98238592D01*
X134137950Y-98420660D01*
X134137947Y-98420670D01*
X134099500Y-98613956D01*
X134099500Y-100097627D01*
X134079815Y-100164666D01*
X134027011Y-100210421D01*
X134018834Y-100213809D01*
X133905169Y-100256203D01*
X133905164Y-100256206D01*
X133789955Y-100342452D01*
X133789952Y-100342455D01*
X133703706Y-100457664D01*
X133703702Y-100457671D01*
X133653408Y-100592517D01*
X133647001Y-100652116D01*
X133647000Y-100652135D01*
X133647000Y-102747870D01*
X133647001Y-102747876D01*
X133653408Y-102807483D01*
X133703702Y-102942328D01*
X133703706Y-102942335D01*
X133789952Y-103057544D01*
X133789955Y-103057547D01*
X133905164Y-103143793D01*
X133905171Y-103143797D01*
X134040017Y-103194091D01*
X134040016Y-103194091D01*
X134046944Y-103194835D01*
X134099627Y-103200500D01*
X136100372Y-103200499D01*
X136159983Y-103194091D01*
X136294831Y-103143796D01*
X136410046Y-103057546D01*
X136496296Y-102942331D01*
X136506690Y-102914460D01*
X136548560Y-102858527D01*
X136614023Y-102834108D01*
X136682297Y-102848958D01*
X136695746Y-102857465D01*
X136878462Y-102990217D01*
X137010599Y-103057544D01*
X137082244Y-103094049D01*
X137299751Y-103164721D01*
X137299752Y-103164721D01*
X137299755Y-103164722D01*
X137525646Y-103200500D01*
X137525647Y-103200500D01*
X137754353Y-103200500D01*
X137754354Y-103200500D01*
X137980245Y-103164722D01*
X137980248Y-103164721D01*
X137980249Y-103164721D01*
X138197755Y-103094049D01*
X138197755Y-103094048D01*
X138197758Y-103094048D01*
X138401538Y-102990217D01*
X138586566Y-102855786D01*
X138748286Y-102694066D01*
X138809683Y-102609559D01*
X138865012Y-102566896D01*
X138934625Y-102560917D01*
X138996420Y-102593523D01*
X139010314Y-102609556D01*
X139071714Y-102694066D01*
X139233434Y-102855786D01*
X139418462Y-102990217D01*
X139550599Y-103057544D01*
X139622244Y-103094049D01*
X139839751Y-103164721D01*
X139839752Y-103164721D01*
X139839755Y-103164722D01*
X140065646Y-103200500D01*
X140065647Y-103200500D01*
X140294353Y-103200500D01*
X140294354Y-103200500D01*
X140520245Y-103164722D01*
X140520248Y-103164721D01*
X140520249Y-103164721D01*
X140737755Y-103094049D01*
X140737755Y-103094048D01*
X140737758Y-103094048D01*
X140941538Y-102990217D01*
X141126566Y-102855786D01*
X141288286Y-102694066D01*
X141422717Y-102509038D01*
X141526548Y-102305258D01*
X141597222Y-102087745D01*
X141633000Y-101861854D01*
X141633000Y-101538146D01*
X141597222Y-101312255D01*
X141597221Y-101312251D01*
X141597221Y-101312250D01*
X141526549Y-101094744D01*
X141526548Y-101094742D01*
X141422717Y-100890962D01*
X141288286Y-100705934D01*
X141216819Y-100634467D01*
X141183334Y-100573144D01*
X141180500Y-100546786D01*
X141180500Y-98493956D01*
X141142052Y-98300670D01*
X141142051Y-98300669D01*
X141142051Y-98300665D01*
X141116337Y-98238586D01*
X141066635Y-98118592D01*
X141066628Y-98118579D01*
X140957140Y-97954719D01*
X140937780Y-97935359D01*
X140817782Y-97815361D01*
X140817781Y-97815360D01*
X139486159Y-96483738D01*
X139452674Y-96422415D01*
X139450223Y-96405791D01*
X139447598Y-96372431D01*
X139401744Y-96214602D01*
X139318081Y-96073135D01*
X139318079Y-96073133D01*
X139318076Y-96073129D01*
X139201870Y-95956923D01*
X139201862Y-95956917D01*
X139060396Y-95873255D01*
X139060393Y-95873254D01*
X138958241Y-95843576D01*
X138899355Y-95805970D01*
X138870149Y-95742497D01*
X138879895Y-95673311D01*
X138925499Y-95620376D01*
X138992482Y-95600501D01*
X138992836Y-95600500D01*
X145407164Y-95600500D01*
X145474203Y-95620185D01*
X145519958Y-95672989D01*
X145529902Y-95742147D01*
X145500877Y-95805703D01*
X145442099Y-95843477D01*
X145441759Y-95843576D01*
X145339606Y-95873254D01*
X145339603Y-95873255D01*
X145198137Y-95956917D01*
X145198129Y-95956923D01*
X145081923Y-96073129D01*
X145081917Y-96073137D01*
X144998255Y-96214603D01*
X144998254Y-96214606D01*
X144952402Y-96372426D01*
X144952401Y-96372432D01*
X144949777Y-96405785D01*
X144924893Y-96471074D01*
X144913840Y-96483738D01*
X144014150Y-97383429D01*
X143462220Y-97935359D01*
X143462218Y-97935361D01*
X143392538Y-98005040D01*
X143322859Y-98074719D01*
X143213371Y-98238579D01*
X143213364Y-98238592D01*
X143137950Y-98420660D01*
X143137947Y-98420670D01*
X143099500Y-98613956D01*
X143099500Y-100097627D01*
X143079815Y-100164666D01*
X143027011Y-100210421D01*
X143018834Y-100213809D01*
X142905169Y-100256203D01*
X142905164Y-100256206D01*
X142789955Y-100342452D01*
X142789952Y-100342455D01*
X142703706Y-100457664D01*
X142703702Y-100457671D01*
X142653408Y-100592517D01*
X142647001Y-100652116D01*
X142647000Y-100652135D01*
X142647000Y-102747870D01*
X142647001Y-102747876D01*
X142653408Y-102807483D01*
X142703702Y-102942328D01*
X142703706Y-102942335D01*
X142789952Y-103057544D01*
X142789955Y-103057547D01*
X142905164Y-103143793D01*
X142905171Y-103143797D01*
X143040017Y-103194091D01*
X143040016Y-103194091D01*
X143046944Y-103194835D01*
X143099627Y-103200500D01*
X145100372Y-103200499D01*
X145159983Y-103194091D01*
X145294831Y-103143796D01*
X145410046Y-103057546D01*
X145496296Y-102942331D01*
X145506690Y-102914460D01*
X145548560Y-102858527D01*
X145614023Y-102834108D01*
X145682297Y-102848958D01*
X145695746Y-102857465D01*
X145878462Y-102990217D01*
X146010599Y-103057544D01*
X146082244Y-103094049D01*
X146299751Y-103164721D01*
X146299752Y-103164721D01*
X146299755Y-103164722D01*
X146525646Y-103200500D01*
X146525647Y-103200500D01*
X146754353Y-103200500D01*
X146754354Y-103200500D01*
X146980245Y-103164722D01*
X146980248Y-103164721D01*
X146980249Y-103164721D01*
X147197755Y-103094049D01*
X147197755Y-103094048D01*
X147197758Y-103094048D01*
X147401538Y-102990217D01*
X147586566Y-102855786D01*
X147748286Y-102694066D01*
X147809683Y-102609559D01*
X147865012Y-102566896D01*
X147934625Y-102560917D01*
X147996420Y-102593523D01*
X148010314Y-102609556D01*
X148071714Y-102694066D01*
X148233434Y-102855786D01*
X148418462Y-102990217D01*
X148550599Y-103057544D01*
X148622244Y-103094049D01*
X148839751Y-103164721D01*
X148839752Y-103164721D01*
X148839755Y-103164722D01*
X149065646Y-103200500D01*
X149065647Y-103200500D01*
X149294353Y-103200500D01*
X149294354Y-103200500D01*
X149520245Y-103164722D01*
X149520248Y-103164721D01*
X149520249Y-103164721D01*
X149737755Y-103094049D01*
X149737755Y-103094048D01*
X149737758Y-103094048D01*
X149941538Y-102990217D01*
X150126566Y-102855786D01*
X150288286Y-102694066D01*
X150422717Y-102509038D01*
X150526548Y-102305258D01*
X150597222Y-102087745D01*
X150633000Y-101861854D01*
X150633000Y-101538146D01*
X150597222Y-101312255D01*
X150597221Y-101312251D01*
X150597221Y-101312250D01*
X150526549Y-101094744D01*
X150526548Y-101094742D01*
X150422717Y-100890962D01*
X150288286Y-100705934D01*
X150216819Y-100634467D01*
X150183334Y-100573144D01*
X150180500Y-100546786D01*
X150180500Y-98493956D01*
X150142052Y-98300670D01*
X150142051Y-98300669D01*
X150142051Y-98300665D01*
X150116337Y-98238586D01*
X150066635Y-98118592D01*
X150066628Y-98118579D01*
X149957140Y-97954719D01*
X149937780Y-97935359D01*
X149817782Y-97815361D01*
X149817781Y-97815360D01*
X148486159Y-96483738D01*
X148452674Y-96422415D01*
X148450223Y-96405791D01*
X148447598Y-96372431D01*
X148401744Y-96214602D01*
X148318081Y-96073135D01*
X148318079Y-96073133D01*
X148318076Y-96073129D01*
X148201870Y-95956923D01*
X148201862Y-95956917D01*
X148060396Y-95873255D01*
X148060393Y-95873254D01*
X147958241Y-95843576D01*
X147899355Y-95805970D01*
X147870149Y-95742497D01*
X147879895Y-95673311D01*
X147925499Y-95620376D01*
X147992482Y-95600501D01*
X147992836Y-95600500D01*
X150775500Y-95600500D01*
X150842539Y-95620185D01*
X150888294Y-95672989D01*
X150899500Y-95724500D01*
X150899500Y-111475500D01*
X150879815Y-111542539D01*
X150827011Y-111588294D01*
X150775500Y-111599500D01*
X149580580Y-111599500D01*
X149513541Y-111579815D01*
X149467786Y-111527011D01*
X149457842Y-111457853D01*
X149486867Y-111394297D01*
X149542262Y-111357569D01*
X149737755Y-111294049D01*
X149737755Y-111294048D01*
X149737758Y-111294048D01*
X149941538Y-111190217D01*
X150126566Y-111055786D01*
X150288286Y-110894066D01*
X150422717Y-110709038D01*
X150526548Y-110505258D01*
X150597222Y-110287745D01*
X150633000Y-110061854D01*
X150633000Y-109738146D01*
X150597222Y-109512255D01*
X150597221Y-109512251D01*
X150597221Y-109512250D01*
X150526549Y-109294744D01*
X150526548Y-109294742D01*
X150422717Y-109090962D01*
X150288286Y-108905934D01*
X150216819Y-108834467D01*
X150183334Y-108773144D01*
X150180500Y-108746786D01*
X150180500Y-106693956D01*
X150142052Y-106500670D01*
X150142051Y-106500669D01*
X150142051Y-106500665D01*
X150116337Y-106438586D01*
X150066635Y-106318592D01*
X150066628Y-106318579D01*
X149957140Y-106154719D01*
X149937780Y-106135359D01*
X149817782Y-106015361D01*
X149817781Y-106015360D01*
X148486159Y-104683738D01*
X148452674Y-104622415D01*
X148450223Y-104605791D01*
X148447598Y-104572431D01*
X148401744Y-104414602D01*
X148318081Y-104273135D01*
X148318079Y-104273133D01*
X148318076Y-104273129D01*
X148201870Y-104156923D01*
X148201862Y-104156917D01*
X148060396Y-104073255D01*
X148060393Y-104073254D01*
X147902573Y-104027402D01*
X147902567Y-104027401D01*
X147865701Y-104024500D01*
X147865694Y-104024500D01*
X147434306Y-104024500D01*
X147434298Y-104024500D01*
X147397432Y-104027401D01*
X147397426Y-104027402D01*
X147239606Y-104073254D01*
X147239603Y-104073255D01*
X147098137Y-104156917D01*
X147098129Y-104156923D01*
X146981923Y-104273129D01*
X146981917Y-104273137D01*
X146898255Y-104414603D01*
X146898254Y-104414606D01*
X146852402Y-104572426D01*
X146852401Y-104572432D01*
X146849500Y-104609298D01*
X146849500Y-104622066D01*
X146829815Y-104689105D01*
X146828601Y-104690958D01*
X146803100Y-104729122D01*
X146749488Y-104773926D01*
X146680163Y-104782633D01*
X146617135Y-104752478D01*
X146596898Y-104729122D01*
X146571396Y-104690955D01*
X146550520Y-104624279D01*
X146550500Y-104622067D01*
X146550500Y-104609313D01*
X146550499Y-104609298D01*
X146550222Y-104605782D01*
X146547598Y-104572431D01*
X146501744Y-104414602D01*
X146418081Y-104273135D01*
X146418079Y-104273133D01*
X146418076Y-104273129D01*
X146301870Y-104156923D01*
X146301862Y-104156917D01*
X146160396Y-104073255D01*
X146160393Y-104073254D01*
X146002573Y-104027402D01*
X146002567Y-104027401D01*
X145965701Y-104024500D01*
X145965694Y-104024500D01*
X145534306Y-104024500D01*
X145534298Y-104024500D01*
X145497432Y-104027401D01*
X145497426Y-104027402D01*
X145339606Y-104073254D01*
X145339603Y-104073255D01*
X145198137Y-104156917D01*
X145198129Y-104156923D01*
X145081923Y-104273129D01*
X145081917Y-104273137D01*
X144998255Y-104414603D01*
X144998254Y-104414606D01*
X144952402Y-104572426D01*
X144952401Y-104572432D01*
X144949777Y-104605785D01*
X144924893Y-104671074D01*
X144913840Y-104683738D01*
X144014150Y-105583429D01*
X143462220Y-106135359D01*
X143462218Y-106135361D01*
X143392538Y-106205040D01*
X143322859Y-106274719D01*
X143213371Y-106438579D01*
X143213364Y-106438592D01*
X143137950Y-106620660D01*
X143137947Y-106620670D01*
X143099500Y-106813956D01*
X143099500Y-108297627D01*
X143079815Y-108364666D01*
X143027011Y-108410421D01*
X143018834Y-108413809D01*
X142905169Y-108456203D01*
X142905164Y-108456206D01*
X142789955Y-108542452D01*
X142789952Y-108542455D01*
X142703706Y-108657664D01*
X142703702Y-108657671D01*
X142653408Y-108792517D01*
X142647001Y-108852116D01*
X142647000Y-108852135D01*
X142647000Y-110947870D01*
X142647001Y-110947876D01*
X142653408Y-111007483D01*
X142703702Y-111142328D01*
X142703706Y-111142335D01*
X142789952Y-111257544D01*
X142789955Y-111257547D01*
X142905164Y-111343793D01*
X142905171Y-111343797D01*
X142946785Y-111359318D01*
X143002719Y-111401189D01*
X143027136Y-111466653D01*
X143012285Y-111534926D01*
X142962880Y-111584332D01*
X142903452Y-111599500D01*
X140580580Y-111599500D01*
X140513541Y-111579815D01*
X140467786Y-111527011D01*
X140457842Y-111457853D01*
X140486867Y-111394297D01*
X140542262Y-111357569D01*
X140737755Y-111294049D01*
X140737755Y-111294048D01*
X140737758Y-111294048D01*
X140941538Y-111190217D01*
X141126566Y-111055786D01*
X141288286Y-110894066D01*
X141422717Y-110709038D01*
X141526548Y-110505258D01*
X141597222Y-110287745D01*
X141633000Y-110061854D01*
X141633000Y-109738146D01*
X141597222Y-109512255D01*
X141597221Y-109512251D01*
X141597221Y-109512250D01*
X141526549Y-109294744D01*
X141526548Y-109294742D01*
X141422717Y-109090962D01*
X141288286Y-108905934D01*
X141216819Y-108834467D01*
X141183334Y-108773144D01*
X141180500Y-108746786D01*
X141180500Y-106693956D01*
X141142052Y-106500670D01*
X141142051Y-106500669D01*
X141142051Y-106500665D01*
X141116337Y-106438586D01*
X141066635Y-106318592D01*
X141066628Y-106318579D01*
X140957140Y-106154719D01*
X140937780Y-106135359D01*
X140817782Y-106015361D01*
X140817781Y-106015360D01*
X139486159Y-104683738D01*
X139452674Y-104622415D01*
X139450223Y-104605791D01*
X139447598Y-104572431D01*
X139401744Y-104414602D01*
X139318081Y-104273135D01*
X139318079Y-104273133D01*
X139318076Y-104273129D01*
X139201870Y-104156923D01*
X139201862Y-104156917D01*
X139060396Y-104073255D01*
X139060393Y-104073254D01*
X138902573Y-104027402D01*
X138902567Y-104027401D01*
X138865701Y-104024500D01*
X138865694Y-104024500D01*
X138434306Y-104024500D01*
X138434298Y-104024500D01*
X138397432Y-104027401D01*
X138397426Y-104027402D01*
X138239606Y-104073254D01*
X138239603Y-104073255D01*
X138098137Y-104156917D01*
X138098129Y-104156923D01*
X137981923Y-104273129D01*
X137981917Y-104273137D01*
X137898255Y-104414603D01*
X137898254Y-104414606D01*
X137852402Y-104572426D01*
X137852401Y-104572432D01*
X137849500Y-104609298D01*
X137849500Y-104622066D01*
X137829815Y-104689105D01*
X137828601Y-104690958D01*
X137803100Y-104729122D01*
X137749488Y-104773926D01*
X137680163Y-104782633D01*
X137617135Y-104752478D01*
X137596898Y-104729122D01*
X137571396Y-104690955D01*
X137550520Y-104624279D01*
X137550500Y-104622067D01*
X137550500Y-104609313D01*
X137550499Y-104609298D01*
X137550222Y-104605782D01*
X137547598Y-104572431D01*
X137501744Y-104414602D01*
X137418081Y-104273135D01*
X137418079Y-104273133D01*
X137418076Y-104273129D01*
X137301870Y-104156923D01*
X137301862Y-104156917D01*
X137160396Y-104073255D01*
X137160393Y-104073254D01*
X137002573Y-104027402D01*
X137002567Y-104027401D01*
X136965701Y-104024500D01*
X136965694Y-104024500D01*
X136534306Y-104024500D01*
X136534298Y-104024500D01*
X136497432Y-104027401D01*
X136497426Y-104027402D01*
X136339606Y-104073254D01*
X136339603Y-104073255D01*
X136198137Y-104156917D01*
X136198129Y-104156923D01*
X136081923Y-104273129D01*
X136081917Y-104273137D01*
X135998255Y-104414603D01*
X135998254Y-104414606D01*
X135952402Y-104572426D01*
X135952401Y-104572432D01*
X135949777Y-104605785D01*
X135924893Y-104671074D01*
X135913840Y-104683738D01*
X135014150Y-105583429D01*
X134462220Y-106135359D01*
X134462218Y-106135361D01*
X134392538Y-106205040D01*
X134322859Y-106274719D01*
X134213371Y-106438579D01*
X134213364Y-106438592D01*
X134137950Y-106620660D01*
X134137947Y-106620670D01*
X134099500Y-106813956D01*
X134099500Y-108297627D01*
X134079815Y-108364666D01*
X134027011Y-108410421D01*
X134018834Y-108413809D01*
X133905169Y-108456203D01*
X133905164Y-108456206D01*
X133789955Y-108542452D01*
X133789952Y-108542455D01*
X133703706Y-108657664D01*
X133703702Y-108657671D01*
X133653408Y-108792517D01*
X133647001Y-108852116D01*
X133647000Y-108852135D01*
X133647000Y-110947870D01*
X133647001Y-110947876D01*
X133653408Y-111007483D01*
X133703702Y-111142328D01*
X133703706Y-111142335D01*
X133789952Y-111257544D01*
X133789955Y-111257547D01*
X133905164Y-111343793D01*
X133905171Y-111343797D01*
X133946785Y-111359318D01*
X134002719Y-111401189D01*
X134027136Y-111466653D01*
X134012285Y-111534926D01*
X133962880Y-111584332D01*
X133903452Y-111599500D01*
X131580580Y-111599500D01*
X131513541Y-111579815D01*
X131467786Y-111527011D01*
X131457842Y-111457853D01*
X131486867Y-111394297D01*
X131542262Y-111357569D01*
X131737755Y-111294049D01*
X131737755Y-111294048D01*
X131737758Y-111294048D01*
X131941538Y-111190217D01*
X132126566Y-111055786D01*
X132288286Y-110894066D01*
X132422717Y-110709038D01*
X132526548Y-110505258D01*
X132597222Y-110287745D01*
X132633000Y-110061854D01*
X132633000Y-109738146D01*
X132597222Y-109512255D01*
X132597221Y-109512251D01*
X132597221Y-109512250D01*
X132526549Y-109294744D01*
X132526548Y-109294742D01*
X132422717Y-109090962D01*
X132288286Y-108905934D01*
X132216819Y-108834467D01*
X132183334Y-108773144D01*
X132180500Y-108746786D01*
X132180500Y-106693956D01*
X132142052Y-106500670D01*
X132142051Y-106500669D01*
X132142051Y-106500665D01*
X132116337Y-106438586D01*
X132066635Y-106318592D01*
X132066628Y-106318579D01*
X131957140Y-106154719D01*
X131937780Y-106135359D01*
X131817782Y-106015361D01*
X131817781Y-106015360D01*
X130486159Y-104683738D01*
X130452674Y-104622415D01*
X130450223Y-104605791D01*
X130447598Y-104572431D01*
X130401744Y-104414602D01*
X130318081Y-104273135D01*
X130318079Y-104273133D01*
X130318076Y-104273129D01*
X130201870Y-104156923D01*
X130201862Y-104156917D01*
X130060396Y-104073255D01*
X130060393Y-104073254D01*
X129902573Y-104027402D01*
X129902567Y-104027401D01*
X129865701Y-104024500D01*
X129865694Y-104024500D01*
X129434306Y-104024500D01*
X129434298Y-104024500D01*
X129397432Y-104027401D01*
X129397426Y-104027402D01*
X129239606Y-104073254D01*
X129239603Y-104073255D01*
X129098137Y-104156917D01*
X129098129Y-104156923D01*
X128981923Y-104273129D01*
X128981917Y-104273137D01*
X128898255Y-104414603D01*
X128898254Y-104414606D01*
X128852402Y-104572426D01*
X128852401Y-104572432D01*
X128849500Y-104609298D01*
X128849500Y-104622066D01*
X128829815Y-104689105D01*
X128828601Y-104690958D01*
X128803100Y-104729122D01*
X128749488Y-104773926D01*
X128680163Y-104782633D01*
X128617135Y-104752478D01*
X128596898Y-104729122D01*
X128571396Y-104690955D01*
X128550520Y-104624279D01*
X128550500Y-104622067D01*
X128550500Y-104609313D01*
X128550499Y-104609298D01*
X128550222Y-104605782D01*
X128547598Y-104572431D01*
X128501744Y-104414602D01*
X128418081Y-104273135D01*
X128418079Y-104273133D01*
X128418076Y-104273129D01*
X128301870Y-104156923D01*
X128301862Y-104156917D01*
X128160396Y-104073255D01*
X128160393Y-104073254D01*
X128002573Y-104027402D01*
X128002567Y-104027401D01*
X127965701Y-104024500D01*
X127965694Y-104024500D01*
X127534306Y-104024500D01*
X127534298Y-104024500D01*
X127497432Y-104027401D01*
X127497426Y-104027402D01*
X127339606Y-104073254D01*
X127339603Y-104073255D01*
X127198137Y-104156917D01*
X127198129Y-104156923D01*
X127081923Y-104273129D01*
X127081917Y-104273137D01*
X126998255Y-104414603D01*
X126998254Y-104414606D01*
X126952402Y-104572426D01*
X126952401Y-104572432D01*
X126949777Y-104605785D01*
X126924893Y-104671074D01*
X126913840Y-104683738D01*
X126014150Y-105583429D01*
X125462220Y-106135359D01*
X125462218Y-106135361D01*
X125392538Y-106205040D01*
X125322859Y-106274719D01*
X125213371Y-106438579D01*
X125213364Y-106438592D01*
X125137950Y-106620660D01*
X125137947Y-106620670D01*
X125099500Y-106813956D01*
X125099500Y-108297627D01*
X125079815Y-108364666D01*
X125027011Y-108410421D01*
X125018834Y-108413809D01*
X124905169Y-108456203D01*
X124905164Y-108456206D01*
X124789955Y-108542452D01*
X124789952Y-108542455D01*
X124703706Y-108657664D01*
X124703702Y-108657671D01*
X124653408Y-108792517D01*
X124647001Y-108852116D01*
X124647000Y-108852135D01*
X124647000Y-110947870D01*
X124647001Y-110947876D01*
X124653408Y-111007483D01*
X124703702Y-111142328D01*
X124703706Y-111142335D01*
X124789952Y-111257544D01*
X124789955Y-111257547D01*
X124905164Y-111343793D01*
X124905171Y-111343797D01*
X124946785Y-111359318D01*
X125002719Y-111401189D01*
X125027136Y-111466653D01*
X125012285Y-111534926D01*
X124962880Y-111584332D01*
X124903452Y-111599500D01*
X122580580Y-111599500D01*
X122513541Y-111579815D01*
X122467786Y-111527011D01*
X122457842Y-111457853D01*
X122486867Y-111394297D01*
X122542262Y-111357569D01*
X122737755Y-111294049D01*
X122737755Y-111294048D01*
X122737758Y-111294048D01*
X122941538Y-111190217D01*
X123126566Y-111055786D01*
X123288286Y-110894066D01*
X123422717Y-110709038D01*
X123526548Y-110505258D01*
X123597222Y-110287745D01*
X123633000Y-110061854D01*
X123633000Y-109738146D01*
X123597222Y-109512255D01*
X123597221Y-109512251D01*
X123597221Y-109512250D01*
X123526549Y-109294744D01*
X123526548Y-109294742D01*
X123422717Y-109090962D01*
X123288286Y-108905934D01*
X123216819Y-108834467D01*
X123183334Y-108773144D01*
X123180500Y-108746786D01*
X123180500Y-106693956D01*
X123142052Y-106500670D01*
X123142051Y-106500669D01*
X123142051Y-106500665D01*
X123116337Y-106438586D01*
X123066635Y-106318592D01*
X123066628Y-106318579D01*
X122957140Y-106154719D01*
X122937780Y-106135359D01*
X122817782Y-106015361D01*
X122817781Y-106015360D01*
X121486159Y-104683738D01*
X121452674Y-104622415D01*
X121450223Y-104605791D01*
X121447598Y-104572431D01*
X121401744Y-104414602D01*
X121318081Y-104273135D01*
X121318079Y-104273133D01*
X121318076Y-104273129D01*
X121201870Y-104156923D01*
X121201862Y-104156917D01*
X121060396Y-104073255D01*
X121060393Y-104073254D01*
X120902573Y-104027402D01*
X120902567Y-104027401D01*
X120865701Y-104024500D01*
X120865694Y-104024500D01*
X120434306Y-104024500D01*
X120434298Y-104024500D01*
X120397432Y-104027401D01*
X120397426Y-104027402D01*
X120239606Y-104073254D01*
X120239603Y-104073255D01*
X120098137Y-104156917D01*
X120098129Y-104156923D01*
X119981923Y-104273129D01*
X119981917Y-104273137D01*
X119898255Y-104414603D01*
X119898254Y-104414606D01*
X119852402Y-104572426D01*
X119852401Y-104572432D01*
X119849500Y-104609298D01*
X119849500Y-104622066D01*
X119829815Y-104689105D01*
X119828601Y-104690958D01*
X119803100Y-104729122D01*
X119749488Y-104773926D01*
X119680163Y-104782633D01*
X119617135Y-104752478D01*
X119596898Y-104729122D01*
X119571396Y-104690955D01*
X119550520Y-104624279D01*
X119550500Y-104622067D01*
X119550500Y-104609313D01*
X119550499Y-104609298D01*
X119550222Y-104605782D01*
X119547598Y-104572431D01*
X119501744Y-104414602D01*
X119418081Y-104273135D01*
X119418079Y-104273133D01*
X119418076Y-104273129D01*
X119301870Y-104156923D01*
X119301862Y-104156917D01*
X119160396Y-104073255D01*
X119160393Y-104073254D01*
X119002573Y-104027402D01*
X119002567Y-104027401D01*
X118965701Y-104024500D01*
X118965694Y-104024500D01*
X118534306Y-104024500D01*
X118534298Y-104024500D01*
X118497432Y-104027401D01*
X118497426Y-104027402D01*
X118339606Y-104073254D01*
X118339603Y-104073255D01*
X118198137Y-104156917D01*
X118198129Y-104156923D01*
X118081923Y-104273129D01*
X118081917Y-104273137D01*
X117998255Y-104414603D01*
X117998254Y-104414606D01*
X117952402Y-104572426D01*
X117952401Y-104572432D01*
X117949777Y-104605785D01*
X117924893Y-104671074D01*
X117913840Y-104683738D01*
X117014150Y-105583429D01*
X116462220Y-106135359D01*
X116462218Y-106135361D01*
X116392538Y-106205040D01*
X116322859Y-106274719D01*
X116213371Y-106438579D01*
X116213364Y-106438592D01*
X116137950Y-106620660D01*
X116137947Y-106620670D01*
X116099500Y-106813956D01*
X116099500Y-108297627D01*
X116079815Y-108364666D01*
X116027011Y-108410421D01*
X116018834Y-108413809D01*
X115905169Y-108456203D01*
X115905164Y-108456206D01*
X115789955Y-108542452D01*
X115789952Y-108542455D01*
X115703706Y-108657664D01*
X115703702Y-108657671D01*
X115653408Y-108792517D01*
X115647001Y-108852116D01*
X115647000Y-108852135D01*
X115647000Y-110947870D01*
X115647001Y-110947876D01*
X115653408Y-111007483D01*
X115703702Y-111142328D01*
X115703706Y-111142335D01*
X115789952Y-111257544D01*
X115789955Y-111257547D01*
X115905164Y-111343793D01*
X115905171Y-111343797D01*
X115946785Y-111359318D01*
X116002719Y-111401189D01*
X116027136Y-111466653D01*
X116012285Y-111534926D01*
X115962880Y-111584332D01*
X115903452Y-111599500D01*
X115424500Y-111599500D01*
X115357461Y-111579815D01*
X115311706Y-111527011D01*
X115300500Y-111475500D01*
X115300500Y-95724500D01*
X115320185Y-95657461D01*
X115372989Y-95611706D01*
X115424500Y-95600500D01*
X118407164Y-95600500D01*
X118474203Y-95620185D01*
G37*
%TD.AperFunction*%
M02*
