%TF.GenerationSoftware,KiCad,Pcbnew,10.0.1*%
%TF.CreationDate,2026-05-27T16:41:12-03:00*%
%TF.ProjectId,SHIELD_LORA,53484945-4c44-45f4-9c4f-52412e6b6963,rev?*%
%TF.SameCoordinates,Original*%
%TF.FileFunction,Copper,L1,Top*%
%TF.FilePolarity,Positive*%
%FSLAX46Y46*%
G04 Gerber Fmt 4.6, Leading zero omitted, Abs format (unit mm)*
G04 Created by KiCad (PCBNEW 10.0.1) date 2026-05-27 16:41:12*
%MOMM*%
%LPD*%
G01*
G04 APERTURE LIST*
%TA.AperFunction,NonConductor*%
%ADD10C,0.200000*%
%TD*%
%TA.AperFunction,SMDPad,CuDef*%
%ADD11R,3.000000X0.900000*%
%TD*%
%TA.AperFunction,ComponentPad*%
%ADD12R,1.700000X1.700000*%
%TD*%
%TA.AperFunction,ComponentPad*%
%ADD13C,1.700000*%
%TD*%
%TA.AperFunction,Conductor*%
%ADD14C,0.600000*%
%TD*%
G04 APERTURE END LIST*
D10*
X129000000Y-89000000D02*
X161000000Y-89000000D01*
X161000000Y-115000000D01*
X129000000Y-115000000D01*
X129000000Y-89000000D01*
D11*
%TO.P,U1,1,GND_1*%
%TO.N,Net-(J1-Pin_8)*%
X142234000Y-95162000D03*
%TO.P,U1,2,DIO1_2*%
%TO.N,unconnected-(U1-DIO1-Pad2)*%
X142234000Y-96432000D03*
%TO.P,U1,3,DIO2_3*%
%TO.N,unconnected-(U1-DIO2-Pad3)*%
X142234000Y-97702000D03*
%TO.P,U1,4,DIO3_4*%
%TO.N,unconnected-(U1-DIO3-Pad4)*%
X142234000Y-98972000D03*
%TO.P,U1,5,VCC_5*%
%TO.N,Net-(J1-Pin_7)*%
X142234000Y-100242000D03*
%TO.P,U1,6,MISO_6*%
%TO.N,Net-(J1-Pin_6)*%
X142234000Y-101512000D03*
%TO.P,U1,7,MOSI_7*%
%TO.N,Net-(J1-Pin_5)*%
X142234000Y-102782000D03*
%TO.P,U1,8,SCLK_8*%
%TO.N,Net-(J1-Pin_4)*%
X142234000Y-104052000D03*
%TO.P,U1,9,NSS_9*%
%TO.N,Net-(J1-Pin_3)*%
X142234000Y-105322000D03*
%TO.P,U1,10,DIO0_10*%
%TO.N,Net-(J1-Pin_2)*%
X142234000Y-106592000D03*
%TO.P,U1,11,REST_11*%
%TO.N,Net-(J1-Pin_1)*%
X142234000Y-107862000D03*
%TO.P,U1,12,GND_12*%
%TO.N,unconnected-(U1-GND-Pad12)*%
X142234000Y-109132000D03*
%TO.P,U1,13*%
%TO.N,N/C*%
X155734000Y-96647000D03*
%TO.P,U1,14*%
X155734000Y-95377000D03*
%TD*%
D12*
%TO.P,J1,1,Pin_1_1*%
%TO.N,Net-(J1-Pin_1)*%
X134000000Y-111160000D03*
D13*
%TO.P,J1,2,Pin_2_2*%
%TO.N,Net-(J1-Pin_2)*%
X134000000Y-108620000D03*
%TO.P,J1,3,Pin_3_3*%
%TO.N,Net-(J1-Pin_3)*%
X134000000Y-106080000D03*
%TO.P,J1,4,Pin_4_4*%
%TO.N,Net-(J1-Pin_4)*%
X134000000Y-103540000D03*
%TO.P,J1,5,Pin_5_5*%
%TO.N,Net-(J1-Pin_5)*%
X134000000Y-101000000D03*
%TO.P,J1,6,Pin_6_6*%
%TO.N,Net-(J1-Pin_6)*%
X134000000Y-98460000D03*
%TO.P,J1,7,Pin_7_7*%
%TO.N,Net-(J1-Pin_7)*%
X134000000Y-95920000D03*
%TO.P,J1,8,Pin_8_8*%
%TO.N,Net-(J1-Pin_8)*%
X134000000Y-93380000D03*
%TD*%
%TO.N,Net-(J1-Pin_3)*%
D14*
X134000000Y-106080000D02*
X134758000Y-105322000D01*
X134758000Y-105322000D02*
X142234000Y-105322000D01*
%TO.N,Net-(J1-Pin_4)*%
X134512000Y-104052000D02*
X142234000Y-104052000D01*
X134000000Y-103540000D02*
X134512000Y-104052000D01*
%TO.N,Net-(J1-Pin_2)*%
X136028000Y-106592000D02*
X142234000Y-106592000D01*
X134000000Y-108620000D02*
X136028000Y-106592000D01*
%TO.N,Net-(J1-Pin_6)*%
X137052000Y-101512000D02*
X142234000Y-101512000D01*
X134000000Y-98460000D02*
X137052000Y-101512000D01*
%TO.N,Net-(J1-Pin_5)*%
X134000000Y-101000000D02*
X135782000Y-102782000D01*
X135782000Y-102782000D02*
X142234000Y-102782000D01*
%TO.N,Net-(J1-Pin_1)*%
X137298000Y-107862000D02*
X142234000Y-107862000D01*
X134000000Y-111160000D02*
X137298000Y-107862000D01*
%TO.N,Net-(J1-Pin_8)*%
X134000000Y-93380000D02*
X135782000Y-95162000D01*
X135782000Y-95162000D02*
X142234000Y-95162000D01*
%TO.N,Net-(J1-Pin_7)*%
X134000000Y-95920000D02*
X138322000Y-100242000D01*
X138322000Y-100242000D02*
X142234000Y-100242000D01*
%TD*%
%TA.AperFunction,Conductor*%
%TO.N,Net-(J1-Pin_8)*%
G36*
X159745788Y-90119454D02*
G01*
X159826570Y-90173430D01*
X159880546Y-90254212D01*
X159899500Y-90349500D01*
X159899500Y-113650500D01*
X159880546Y-113745788D01*
X159826570Y-113826570D01*
X159745788Y-113880546D01*
X159650500Y-113899500D01*
X130349500Y-113899500D01*
X130254212Y-113880546D01*
X130173430Y-113826570D01*
X130119454Y-113745788D01*
X130100500Y-113650500D01*
X130100500Y-95798712D01*
X132149500Y-95798712D01*
X132149500Y-96041287D01*
X132181162Y-96281790D01*
X132181163Y-96281795D01*
X132243940Y-96516082D01*
X132243948Y-96516105D01*
X132336770Y-96740201D01*
X132336778Y-96740217D01*
X132452150Y-96940046D01*
X132458064Y-96950289D01*
X132525690Y-97038421D01*
X132568659Y-97125555D01*
X132575013Y-97222502D01*
X132543783Y-97314501D01*
X132525693Y-97341574D01*
X132458064Y-97429711D01*
X132458061Y-97429715D01*
X132458058Y-97429720D01*
X132336778Y-97639782D01*
X132336770Y-97639798D01*
X132243948Y-97863894D01*
X132243940Y-97863917D01*
X132181163Y-98098204D01*
X132181162Y-98098209D01*
X132149500Y-98338712D01*
X132149500Y-98581287D01*
X132181162Y-98821790D01*
X132181163Y-98821795D01*
X132243940Y-99056082D01*
X132243948Y-99056105D01*
X132336770Y-99280201D01*
X132336778Y-99280217D01*
X132458058Y-99490279D01*
X132458064Y-99490289D01*
X132525690Y-99578421D01*
X132568659Y-99665555D01*
X132575013Y-99762502D01*
X132543783Y-99854501D01*
X132525693Y-99881574D01*
X132458064Y-99969711D01*
X132458061Y-99969715D01*
X132458058Y-99969720D01*
X132336778Y-100179782D01*
X132336770Y-100179798D01*
X132243948Y-100403894D01*
X132243940Y-100403917D01*
X132181163Y-100638204D01*
X132181162Y-100638209D01*
X132149500Y-100878712D01*
X132149500Y-101121287D01*
X132181162Y-101361790D01*
X132181163Y-101361795D01*
X132243940Y-101596082D01*
X132243948Y-101596105D01*
X132336770Y-101820201D01*
X132336778Y-101820217D01*
X132458058Y-102030279D01*
X132458064Y-102030289D01*
X132525690Y-102118421D01*
X132568659Y-102205555D01*
X132575013Y-102302502D01*
X132543783Y-102394501D01*
X132525693Y-102421574D01*
X132458064Y-102509711D01*
X132458061Y-102509715D01*
X132458058Y-102509720D01*
X132336778Y-102719782D01*
X132336770Y-102719798D01*
X132243948Y-102943894D01*
X132243940Y-102943917D01*
X132181163Y-103178204D01*
X132181162Y-103178209D01*
X132149500Y-103418712D01*
X132149500Y-103661287D01*
X132181162Y-103901790D01*
X132181163Y-103901795D01*
X132243940Y-104136082D01*
X132243948Y-104136105D01*
X132336770Y-104360201D01*
X132336778Y-104360217D01*
X132458058Y-104570279D01*
X132458064Y-104570289D01*
X132525690Y-104658421D01*
X132568659Y-104745555D01*
X132575013Y-104842502D01*
X132543783Y-104934501D01*
X132525693Y-104961574D01*
X132458064Y-105049711D01*
X132458061Y-105049715D01*
X132458058Y-105049720D01*
X132336778Y-105259782D01*
X132336770Y-105259798D01*
X132243948Y-105483894D01*
X132243940Y-105483917D01*
X132181163Y-105718204D01*
X132181162Y-105718209D01*
X132149500Y-105958712D01*
X132149500Y-106201287D01*
X132181162Y-106441790D01*
X132181163Y-106441795D01*
X132243940Y-106676082D01*
X132243948Y-106676105D01*
X132336770Y-106900201D01*
X132336778Y-106900217D01*
X132458058Y-107110279D01*
X132458064Y-107110289D01*
X132525690Y-107198421D01*
X132568659Y-107285555D01*
X132575013Y-107382502D01*
X132543783Y-107474501D01*
X132525693Y-107501574D01*
X132458064Y-107589711D01*
X132458061Y-107589715D01*
X132458058Y-107589720D01*
X132336778Y-107799782D01*
X132336770Y-107799798D01*
X132243948Y-108023894D01*
X132243940Y-108023917D01*
X132181163Y-108258204D01*
X132181162Y-108258209D01*
X132149500Y-108498712D01*
X132149500Y-108741287D01*
X132181162Y-108981790D01*
X132181163Y-108981795D01*
X132243940Y-109216082D01*
X132243948Y-109216105D01*
X132336769Y-109440199D01*
X132336773Y-109440205D01*
X132336776Y-109440212D01*
X132346867Y-109457690D01*
X132378096Y-109549686D01*
X132371742Y-109646633D01*
X132328772Y-109733769D01*
X132324210Y-109739536D01*
X132310300Y-109756595D01*
X132310299Y-109756596D01*
X132216093Y-109936946D01*
X132216090Y-109936954D01*
X132160115Y-110132578D01*
X132160114Y-110132582D01*
X132149500Y-110251963D01*
X132149500Y-112068031D01*
X132149501Y-112068043D01*
X132160113Y-112187414D01*
X132160113Y-112187417D01*
X132160114Y-112187418D01*
X132216091Y-112383049D01*
X132310302Y-112563407D01*
X132438891Y-112721109D01*
X132596593Y-112849698D01*
X132776951Y-112943909D01*
X132972582Y-112999886D01*
X133091963Y-113010500D01*
X134908036Y-113010499D01*
X135027418Y-112999886D01*
X135223049Y-112943909D01*
X135403407Y-112849698D01*
X135561109Y-112721109D01*
X135689698Y-112563407D01*
X135783909Y-112383049D01*
X135839886Y-112187418D01*
X135850500Y-112068037D01*
X135850499Y-111251823D01*
X135869453Y-111156536D01*
X135923429Y-111075755D01*
X135923430Y-111075754D01*
X137763756Y-109235430D01*
X137844537Y-109181454D01*
X137939825Y-109162500D01*
X139484501Y-109162500D01*
X139579789Y-109181454D01*
X139660571Y-109235430D01*
X139714547Y-109316212D01*
X139733501Y-109411500D01*
X139733501Y-109640043D01*
X139744113Y-109759414D01*
X139744113Y-109759417D01*
X139744114Y-109759418D01*
X139800091Y-109955049D01*
X139894302Y-110135407D01*
X140022891Y-110293109D01*
X140180593Y-110421698D01*
X140360951Y-110515909D01*
X140556582Y-110571886D01*
X140675963Y-110582500D01*
X143792036Y-110582499D01*
X143911418Y-110571886D01*
X144107049Y-110515909D01*
X144287407Y-110421698D01*
X144445109Y-110293109D01*
X144573698Y-110135407D01*
X144667909Y-109955049D01*
X144723886Y-109759418D01*
X144734500Y-109640037D01*
X144734499Y-108623964D01*
X144725172Y-108519047D01*
X144725172Y-108474953D01*
X144734500Y-108370037D01*
X144734499Y-107353964D01*
X144725172Y-107249047D01*
X144725172Y-107204953D01*
X144734500Y-107100037D01*
X144734499Y-106083964D01*
X144725172Y-105979047D01*
X144725172Y-105934953D01*
X144734500Y-105830037D01*
X144734499Y-104813964D01*
X144725172Y-104709047D01*
X144725172Y-104664953D01*
X144734500Y-104560037D01*
X144734499Y-103543964D01*
X144725172Y-103439047D01*
X144725172Y-103394953D01*
X144734500Y-103290037D01*
X144734499Y-102273964D01*
X144725172Y-102169047D01*
X144725172Y-102124953D01*
X144734500Y-102020037D01*
X144734499Y-101003964D01*
X144725172Y-100899047D01*
X144725172Y-100854953D01*
X144734500Y-100750037D01*
X144734499Y-99733964D01*
X144725172Y-99629047D01*
X144725172Y-99584953D01*
X144734500Y-99480037D01*
X144734499Y-98463964D01*
X144725172Y-98359047D01*
X144725172Y-98314950D01*
X144734500Y-98210037D01*
X144734499Y-97193964D01*
X144725172Y-97089047D01*
X144725172Y-97044950D01*
X144734500Y-96940037D01*
X144734499Y-95923964D01*
X144723886Y-95804582D01*
X144667909Y-95608951D01*
X144573698Y-95428593D01*
X144445109Y-95270891D01*
X144325645Y-95173481D01*
X144317528Y-95163654D01*
X144306930Y-95156573D01*
X144286821Y-95126478D01*
X144263774Y-95098575D01*
X144260035Y-95086389D01*
X144252954Y-95075791D01*
X144245892Y-95040292D01*
X144235278Y-95005694D01*
X144234000Y-94980503D01*
X144234000Y-94868963D01*
X153233500Y-94868963D01*
X153233500Y-95885031D01*
X153233501Y-95885046D01*
X153242827Y-95989950D01*
X153242827Y-96034048D01*
X153233500Y-96138956D01*
X153233500Y-97155031D01*
X153233501Y-97155043D01*
X153244113Y-97274414D01*
X153244113Y-97274417D01*
X153244114Y-97274418D01*
X153300091Y-97470049D01*
X153394302Y-97650407D01*
X153522891Y-97808109D01*
X153680593Y-97936698D01*
X153860951Y-98030909D01*
X154056582Y-98086886D01*
X154175963Y-98097500D01*
X157292036Y-98097499D01*
X157411418Y-98086886D01*
X157607049Y-98030909D01*
X157787407Y-97936698D01*
X157945109Y-97808109D01*
X158073698Y-97650407D01*
X158167909Y-97470049D01*
X158223886Y-97274418D01*
X158234500Y-97155037D01*
X158234499Y-96138964D01*
X158225172Y-96034047D01*
X158225172Y-95989950D01*
X158234500Y-95885037D01*
X158234499Y-94868964D01*
X158223886Y-94749582D01*
X158167909Y-94553951D01*
X158073698Y-94373593D01*
X157945109Y-94215891D01*
X157787407Y-94087302D01*
X157787402Y-94087299D01*
X157607053Y-93993093D01*
X157607052Y-93993092D01*
X157607049Y-93993091D01*
X157411418Y-93937114D01*
X157292037Y-93926500D01*
X157292035Y-93926500D01*
X154175968Y-93926500D01*
X154175956Y-93926501D01*
X154056585Y-93937113D01*
X153860954Y-93993090D01*
X153860946Y-93993093D01*
X153680597Y-94087299D01*
X153680592Y-94087302D01*
X153522893Y-94215889D01*
X153522889Y-94215893D01*
X153394302Y-94373592D01*
X153394299Y-94373597D01*
X153300093Y-94553946D01*
X153300090Y-94553954D01*
X153244115Y-94749578D01*
X153244114Y-94749582D01*
X153233500Y-94868963D01*
X144234000Y-94868963D01*
X144234000Y-94664175D01*
X144233999Y-94664167D01*
X144227598Y-94604628D01*
X144227596Y-94604621D01*
X144177353Y-94469912D01*
X144091189Y-94354812D01*
X144091187Y-94354810D01*
X143976087Y-94268646D01*
X143841378Y-94218403D01*
X143841371Y-94218401D01*
X143781832Y-94212000D01*
X143537553Y-94212000D01*
X142840985Y-94908566D01*
X142840983Y-94908570D01*
X142760201Y-94962546D01*
X142664913Y-94981500D01*
X142662086Y-94981500D01*
X142566798Y-94962546D01*
X142486016Y-94908570D01*
X142432040Y-94827788D01*
X142413086Y-94732500D01*
X142432040Y-94637212D01*
X142486016Y-94556430D01*
X142830446Y-94212000D01*
X141637553Y-94212000D01*
X141981980Y-94556427D01*
X141981984Y-94556430D01*
X142035960Y-94637212D01*
X142054914Y-94732500D01*
X142035960Y-94827788D01*
X141981984Y-94908570D01*
X141901202Y-94962546D01*
X141805914Y-94981500D01*
X141803087Y-94981500D01*
X141707799Y-94962546D01*
X141702088Y-94958730D01*
X141627017Y-94908570D01*
X141627014Y-94908566D01*
X140930447Y-94212000D01*
X140686167Y-94212000D01*
X140626628Y-94218401D01*
X140626621Y-94218403D01*
X140491912Y-94268646D01*
X140376812Y-94354810D01*
X140376810Y-94354812D01*
X140290646Y-94469912D01*
X140240403Y-94604621D01*
X140240401Y-94604628D01*
X140234000Y-94664167D01*
X140234000Y-94980503D01*
X140215046Y-95075791D01*
X140161070Y-95156573D01*
X140142354Y-95173482D01*
X140022893Y-95270889D01*
X140022889Y-95270893D01*
X139894302Y-95428592D01*
X139894299Y-95428597D01*
X139800093Y-95608946D01*
X139800090Y-95608954D01*
X139744115Y-95804578D01*
X139744114Y-95804582D01*
X139733500Y-95923963D01*
X139733500Y-96940031D01*
X139733501Y-96940046D01*
X139742827Y-97044950D01*
X139742827Y-97089048D01*
X139733500Y-97193956D01*
X139733500Y-98210031D01*
X139733501Y-98210046D01*
X139742827Y-98314950D01*
X139743700Y-98344213D01*
X139743483Y-98351669D01*
X139733500Y-98463963D01*
X139733500Y-98696092D01*
X139733395Y-98699715D01*
X139723335Y-98743602D01*
X139714546Y-98787788D01*
X139712507Y-98790838D01*
X139711688Y-98794414D01*
X139685600Y-98831108D01*
X139660570Y-98868570D01*
X139657518Y-98870609D01*
X139655394Y-98873597D01*
X139617248Y-98897516D01*
X139579788Y-98922546D01*
X139576190Y-98923261D01*
X139573083Y-98925210D01*
X139528686Y-98932710D01*
X139484500Y-98941500D01*
X138963825Y-98941500D01*
X138868537Y-98922546D01*
X138787755Y-98868570D01*
X135923430Y-96004245D01*
X135869454Y-95923463D01*
X135850500Y-95828175D01*
X135850500Y-95798712D01*
X135825518Y-95608954D01*
X135818838Y-95558211D01*
X135784107Y-95428593D01*
X135756059Y-95323917D01*
X135756057Y-95323911D01*
X135756054Y-95323900D01*
X135693749Y-95173482D01*
X135663229Y-95099798D01*
X135663221Y-95099782D01*
X135541941Y-94889720D01*
X135541935Y-94889710D01*
X135526015Y-94868963D01*
X135434414Y-94749585D01*
X135394270Y-94697268D01*
X135394261Y-94697258D01*
X135222741Y-94525738D01*
X135222738Y-94525735D01*
X135167041Y-94482997D01*
X135102982Y-94409952D01*
X135071752Y-94317953D01*
X135078106Y-94221006D01*
X135117179Y-94139091D01*
X135154622Y-94087555D01*
X135154623Y-94087554D01*
X135251091Y-93898225D01*
X135251095Y-93898215D01*
X135316758Y-93696123D01*
X135349999Y-93486256D01*
X135350000Y-93486244D01*
X135350000Y-93273755D01*
X135349999Y-93273743D01*
X135316758Y-93063876D01*
X135251095Y-92861784D01*
X135251091Y-92861774D01*
X135154624Y-92672448D01*
X135115270Y-92618282D01*
X134482962Y-93250590D01*
X134465925Y-93187007D01*
X134400099Y-93072993D01*
X134307007Y-92979901D01*
X134192993Y-92914075D01*
X134129407Y-92897036D01*
X134761717Y-92264729D01*
X134707551Y-92225375D01*
X134707545Y-92225371D01*
X134518225Y-92128908D01*
X134518215Y-92128904D01*
X134316123Y-92063241D01*
X134106256Y-92030000D01*
X133893743Y-92030000D01*
X133683876Y-92063241D01*
X133481784Y-92128904D01*
X133481774Y-92128908D01*
X133292454Y-92225372D01*
X133292441Y-92225380D01*
X133238281Y-92264728D01*
X133870591Y-92897037D01*
X133807007Y-92914075D01*
X133692993Y-92979901D01*
X133599901Y-93072993D01*
X133534075Y-93187007D01*
X133517037Y-93250591D01*
X132884728Y-92618281D01*
X132845380Y-92672441D01*
X132845372Y-92672454D01*
X132748908Y-92861774D01*
X132748904Y-92861784D01*
X132683241Y-93063876D01*
X132650000Y-93273743D01*
X132650000Y-93486256D01*
X132683241Y-93696123D01*
X132748904Y-93898215D01*
X132748908Y-93898225D01*
X132845376Y-94087553D01*
X132882822Y-94139093D01*
X132923497Y-94227324D01*
X132927311Y-94324404D01*
X132893685Y-94415554D01*
X132832960Y-94482996D01*
X132777264Y-94525732D01*
X132605738Y-94697258D01*
X132605729Y-94697268D01*
X132458064Y-94889710D01*
X132458058Y-94889720D01*
X132336778Y-95099782D01*
X132336770Y-95099798D01*
X132243948Y-95323894D01*
X132243940Y-95323917D01*
X132181163Y-95558204D01*
X132181162Y-95558209D01*
X132149500Y-95798712D01*
X130100500Y-95798712D01*
X130100500Y-90349500D01*
X130119454Y-90254212D01*
X130173430Y-90173430D01*
X130254212Y-90119454D01*
X130349500Y-90100500D01*
X159650500Y-90100500D01*
X159745788Y-90119454D01*
G37*
%TD.AperFunction*%
%TD*%
M02*
