ISO-10303-21;
HEADER;
/* Generated by software containing ST-Developer
 * from STEP Tools, Inc. (www.steptools.com) 
 */

FILE_DESCRIPTION(
/* description */ (''),
/* implementation_level */ '2;1');

FILE_NAME(
/* name */ 'AgroBot.step',
/* time_stamp */ '2026-07-23T01:00:29-03:00',
/* author */ (''),
/* organization */ (''),
/* preprocessor_version */ 'ST-DEVELOPER v20.1',
/* originating_system */ 'Autodesk Translation Framework v15.8.0.0',
/* authorisation */ '');

FILE_SCHEMA (('AUTOMOTIVE_DESIGN { 1 0 10303 214 3 1 1 }'));
ENDSEC;

DATA;
#10=MECHANICAL_DESIGN_GEOMETRIC_PRESENTATION_REPRESENTATION('',(#13),#1109);
#11=SHAPE_REPRESENTATION_RELATIONSHIP('SRR','None',#1116,#12);
#12=ADVANCED_BREP_SHAPE_REPRESENTATION('',(#14),#1108);
#13=STYLED_ITEM('',(#1125),#14);
#14=MANIFOLD_SOLID_BREP('Cuerpo11',#661);
#15=FACE_BOUND('',#103,.T.);
#16=FACE_BOUND('',#105,.T.);
#17=FACE_BOUND('',#106,.T.);
#18=FACE_BOUND('',#107,.T.);
#19=FACE_BOUND('',#123,.T.);
#20=FACE_BOUND('',#139,.T.);
#21=FACE_BOUND('',#140,.T.);
#22=FACE_BOUND('',#141,.T.);
#23=FACE_BOUND('',#142,.T.);
#24=FACE_BOUND('',#143,.T.);
#25=FACE_BOUND('',#145,.T.);
#26=FACE_BOUND('',#149,.T.);
#27=FACE_BOUND('',#153,.T.);
#28=PLANE('',#681);
#29=PLANE('',#682);
#30=PLANE('',#685);
#31=PLANE('',#686);
#32=PLANE('',#687);
#33=PLANE('',#688);
#34=PLANE('',#690);
#35=PLANE('',#692);
#36=PLANE('',#693);
#37=PLANE('',#694);
#38=PLANE('',#695);
#39=PLANE('',#696);
#40=PLANE('',#697);
#41=PLANE('',#698);
#42=PLANE('',#699);
#43=PLANE('',#700);
#44=PLANE('',#701);
#45=PLANE('',#702);
#46=PLANE('',#706);
#47=PLANE('',#710);
#48=PLANE('',#714);
#49=PLANE('',#718);
#50=PLANE('',#719);
#51=PLANE('',#720);
#52=PLANE('',#721);
#53=PLANE('',#722);
#54=PLANE('',#723);
#55=PLANE('',#724);
#56=PLANE('',#725);
#57=PLANE('',#730);
#58=PLANE('',#735);
#59=FACE_OUTER_BOUND('',#100,.T.);
#60=FACE_OUTER_BOUND('',#101,.T.);
#61=FACE_OUTER_BOUND('',#102,.T.);
#62=FACE_OUTER_BOUND('',#104,.T.);
#63=FACE_OUTER_BOUND('',#108,.T.);
#64=FACE_OUTER_BOUND('',#109,.T.);
#65=FACE_OUTER_BOUND('',#110,.T.);
#66=FACE_OUTER_BOUND('',#111,.T.);
#67=FACE_OUTER_BOUND('',#112,.T.);
#68=FACE_OUTER_BOUND('',#113,.T.);
#69=FACE_OUTER_BOUND('',#114,.T.);
#70=FACE_OUTER_BOUND('',#115,.T.);
#71=FACE_OUTER_BOUND('',#116,.T.);
#72=FACE_OUTER_BOUND('',#117,.T.);
#73=FACE_OUTER_BOUND('',#118,.T.);
#74=FACE_OUTER_BOUND('',#119,.T.);
#75=FACE_OUTER_BOUND('',#120,.T.);
#76=FACE_OUTER_BOUND('',#121,.T.);
#77=FACE_OUTER_BOUND('',#122,.T.);
#78=FACE_OUTER_BOUND('',#124,.T.);
#79=FACE_OUTER_BOUND('',#125,.T.);
#80=FACE_OUTER_BOUND('',#126,.T.);
#81=FACE_OUTER_BOUND('',#127,.T.);
#82=FACE_OUTER_BOUND('',#128,.T.);
#83=FACE_OUTER_BOUND('',#129,.T.);
#84=FACE_OUTER_BOUND('',#130,.T.);
#85=FACE_OUTER_BOUND('',#131,.T.);
#86=FACE_OUTER_BOUND('',#132,.T.);
#87=FACE_OUTER_BOUND('',#133,.T.);
#88=FACE_OUTER_BOUND('',#134,.T.);
#89=FACE_OUTER_BOUND('',#135,.T.);
#90=FACE_OUTER_BOUND('',#136,.T.);
#91=FACE_OUTER_BOUND('',#137,.T.);
#92=FACE_OUTER_BOUND('',#138,.T.);
#93=FACE_OUTER_BOUND('',#144,.T.);
#94=FACE_OUTER_BOUND('',#146,.T.);
#95=FACE_OUTER_BOUND('',#147,.T.);
#96=FACE_OUTER_BOUND('',#148,.T.);
#97=FACE_OUTER_BOUND('',#150,.T.);
#98=FACE_OUTER_BOUND('',#151,.T.);
#99=FACE_OUTER_BOUND('',#152,.T.);
#100=EDGE_LOOP('',(#442,#443,#444,#445));
#101=EDGE_LOOP('',(#446,#447,#448,#449));
#102=EDGE_LOOP('',(#450));
#103=EDGE_LOOP('',(#451));
#104=EDGE_LOOP('',(#452,#453,#454,#455));
#105=EDGE_LOOP('',(#456));
#106=EDGE_LOOP('',(#457));
#107=EDGE_LOOP('',(#458));
#108=EDGE_LOOP('',(#459,#460,#461,#462,#463,#464,#465,#466,#467,#468));
#109=EDGE_LOOP('',(#469,#470,#471,#472));
#110=EDGE_LOOP('',(#473));
#111=EDGE_LOOP('',(#474));
#112=EDGE_LOOP('',(#475));
#113=EDGE_LOOP('',(#476,#477,#478,#479));
#114=EDGE_LOOP('',(#480,#481,#482,#483));
#115=EDGE_LOOP('',(#484,#485,#486,#487));
#116=EDGE_LOOP('',(#488,#489,#490,#491));
#117=EDGE_LOOP('',(#492,#493,#494,#495,#496,#497,#498,#499,#500,#501));
#118=EDGE_LOOP('',(#502,#503,#504,#505));
#119=EDGE_LOOP('',(#506,#507,#508,#509));
#120=EDGE_LOOP('',(#510,#511,#512,#513));
#121=EDGE_LOOP('',(#514,#515,#516,#517));
#122=EDGE_LOOP('',(#518,#519,#520,#521));
#123=EDGE_LOOP('',(#522,#523,#524,#525));
#124=EDGE_LOOP('',(#526,#527,#528,#529));
#125=EDGE_LOOP('',(#530,#531,#532,#533));
#126=EDGE_LOOP('',(#534));
#127=EDGE_LOOP('',(#535,#536,#537,#538));
#128=EDGE_LOOP('',(#539));
#129=EDGE_LOOP('',(#540,#541,#542,#543));
#130=EDGE_LOOP('',(#544));
#131=EDGE_LOOP('',(#545,#546,#547,#548));
#132=EDGE_LOOP('',(#549));
#133=EDGE_LOOP('',(#550,#551,#552,#553));
#134=EDGE_LOOP('',(#554,#555,#556,#557));
#135=EDGE_LOOP('',(#558,#559,#560,#561));
#136=EDGE_LOOP('',(#562,#563,#564,#565));
#137=EDGE_LOOP('',(#566,#567,#568,#569));
#138=EDGE_LOOP('',(#570,#571,#572,#573));
#139=EDGE_LOOP('',(#574));
#140=EDGE_LOOP('',(#575));
#141=EDGE_LOOP('',(#576));
#142=EDGE_LOOP('',(#577));
#143=EDGE_LOOP('',(#578,#579,#580,#581));
#144=EDGE_LOOP('',(#582,#583,#584,#585));
#145=EDGE_LOOP('',(#586,#587,#588,#589));
#146=EDGE_LOOP('',(#590,#591,#592,#593));
#147=EDGE_LOOP('',(#594,#595,#596,#597));
#148=EDGE_LOOP('',(#598));
#149=EDGE_LOOP('',(#599));
#150=EDGE_LOOP('',(#600,#601,#602,#603));
#151=EDGE_LOOP('',(#604,#605,#606,#607));
#152=EDGE_LOOP('',(#608));
#153=EDGE_LOOP('',(#609));
#154=LINE('',#929,#218);
#155=LINE('',#935,#219);
#156=LINE('',#941,#220);
#157=LINE('',#943,#221);
#158=LINE('',#945,#222);
#159=LINE('',#946,#223);
#160=LINE('',#954,#224);
#161=LINE('',#956,#225);
#162=LINE('',#958,#226);
#163=LINE('',#959,#227);
#164=LINE('',#961,#228);
#165=LINE('',#963,#229);
#166=LINE('',#965,#230);
#167=LINE('',#967,#231);
#168=LINE('',#968,#232);
#169=LINE('',#971,#233);
#170=LINE('',#972,#234);
#171=LINE('',#983,#235);
#172=LINE('',#984,#236);
#173=LINE('',#985,#237);
#174=LINE('',#988,#238);
#175=LINE('',#989,#239);
#176=LINE('',#991,#240);
#177=LINE('',#994,#241);
#178=LINE('',#996,#242);
#179=LINE('',#997,#243);
#180=LINE('',#1000,#244);
#181=LINE('',#1001,#245);
#182=LINE('',#1003,#246);
#183=LINE('',#1004,#247);
#184=LINE('',#1008,#248);
#185=LINE('',#1010,#249);
#186=LINE('',#1012,#250);
#187=LINE('',#1013,#251);
#188=LINE('',#1017,#252);
#189=LINE('',#1018,#253);
#190=LINE('',#1019,#254);
#191=LINE('',#1023,#255);
#192=LINE('',#1024,#256);
#193=LINE('',#1025,#257);
#194=LINE('',#1027,#258);
#195=LINE('',#1028,#259);
#196=LINE('',#1035,#260);
#197=LINE('',#1042,#261);
#198=LINE('',#1049,#262);
#199=LINE('',#1056,#263);
#200=LINE('',#1062,#264);
#201=LINE('',#1064,#265);
#202=LINE('',#1066,#266);
#203=LINE('',#1067,#267);
#204=LINE('',#1070,#268);
#205=LINE('',#1072,#269);
#206=LINE('',#1073,#270);
#207=LINE('',#1076,#271);
#208=LINE('',#1078,#272);
#209=LINE('',#1079,#273);
#210=LINE('',#1081,#274);
#211=LINE('',#1082,#275);
#212=LINE('',#1084,#276);
#213=LINE('',#1085,#277);
#214=LINE('',#1091,#278);
#215=LINE('',#1095,#279);
#216=LINE('',#1100,#280);
#217=LINE('',#1104,#281);
#218=VECTOR('',#742,2.00000000000001);
#219=VECTOR('',#749,4.);
#220=VECTOR('',#756,10.);
#221=VECTOR('',#757,10.);
#222=VECTOR('',#758,10.);
#223=VECTOR('',#759,10.);
#224=VECTOR('',#766,10.);
#225=VECTOR('',#767,10.);
#226=VECTOR('',#768,10.);
#227=VECTOR('',#769,10.);
#228=VECTOR('',#770,10.);
#229=VECTOR('',#771,10.);
#230=VECTOR('',#772,10.);
#231=VECTOR('',#773,10.);
#232=VECTOR('',#774,10.);
#233=VECTOR('',#777,10.);
#234=VECTOR('',#778,10.);
#235=VECTOR('',#791,10.);
#236=VECTOR('',#792,10.);
#237=VECTOR('',#793,10.);
#238=VECTOR('',#796,10.);
#239=VECTOR('',#797,10.);
#240=VECTOR('',#800,10.);
#241=VECTOR('',#803,10.);
#242=VECTOR('',#804,10.);
#243=VECTOR('',#805,10.);
#244=VECTOR('',#808,10.);
#245=VECTOR('',#809,10.);
#246=VECTOR('',#810,10.);
#247=VECTOR('',#811,10.);
#248=VECTOR('',#814,10.);
#249=VECTOR('',#815,10.);
#250=VECTOR('',#816,10.);
#251=VECTOR('',#817,10.);
#252=VECTOR('',#820,10.);
#253=VECTOR('',#821,10.);
#254=VECTOR('',#822,10.);
#255=VECTOR('',#825,10.);
#256=VECTOR('',#826,10.);
#257=VECTOR('',#827,10.);
#258=VECTOR('',#830,10.);
#259=VECTOR('',#831,10.);
#260=VECTOR('',#840,2.05);
#261=VECTOR('',#849,2.05);
#262=VECTOR('',#858,2.05);
#263=VECTOR('',#867,2.05);
#264=VECTOR('',#874,10.);
#265=VECTOR('',#875,10.);
#266=VECTOR('',#876,10.);
#267=VECTOR('',#877,10.);
#268=VECTOR('',#880,10.);
#269=VECTOR('',#881,10.);
#270=VECTOR('',#882,10.);
#271=VECTOR('',#885,10.);
#272=VECTOR('',#886,10.);
#273=VECTOR('',#887,10.);
#274=VECTOR('',#890,10.);
#275=VECTOR('',#891,10.);
#276=VECTOR('',#894,10.);
#277=VECTOR('',#895,10.);
#278=VECTOR('',#904,2.00000000000001);
#279=VECTOR('',#909,4.);
#280=VECTOR('',#916,2.00000000000001);
#281=VECTOR('',#921,4.);
#282=CIRCLE('',#676,2.00000000000001);
#283=CIRCLE('',#677,2.00000000000001);
#284=CIRCLE('',#679,4.);
#285=CIRCLE('',#680,4.);
#286=CIRCLE('',#683,4.);
#287=CIRCLE('',#684,4.);
#288=CIRCLE('',#689,2.00000000000001);
#289=CIRCLE('',#691,2.00000000000001);
#290=CIRCLE('',#704,2.05);
#291=CIRCLE('',#705,2.05);
#292=CIRCLE('',#708,2.05);
#293=CIRCLE('',#709,2.05);
#294=CIRCLE('',#712,2.05);
#295=CIRCLE('',#713,2.05);
#296=CIRCLE('',#716,2.05);
#297=CIRCLE('',#717,2.05);
#298=CIRCLE('',#727,2.00000000000001);
#299=CIRCLE('',#729,4.);
#300=CIRCLE('',#732,2.00000000000001);
#301=CIRCLE('',#734,4.);
#302=VERTEX_POINT('',#926);
#303=VERTEX_POINT('',#928);
#304=VERTEX_POINT('',#932);
#305=VERTEX_POINT('',#934);
#306=VERTEX_POINT('',#939);
#307=VERTEX_POINT('',#940);
#308=VERTEX_POINT('',#942);
#309=VERTEX_POINT('',#944);
#310=VERTEX_POINT('',#947);
#311=VERTEX_POINT('',#949);
#312=VERTEX_POINT('',#952);
#313=VERTEX_POINT('',#953);
#314=VERTEX_POINT('',#955);
#315=VERTEX_POINT('',#957);
#316=VERTEX_POINT('',#960);
#317=VERTEX_POINT('',#962);
#318=VERTEX_POINT('',#964);
#319=VERTEX_POINT('',#966);
#320=VERTEX_POINT('',#970);
#321=VERTEX_POINT('',#975);
#322=VERTEX_POINT('',#978);
#323=VERTEX_POINT('',#981);
#324=VERTEX_POINT('',#982);
#325=VERTEX_POINT('',#987);
#326=VERTEX_POINT('',#993);
#327=VERTEX_POINT('',#995);
#328=VERTEX_POINT('',#999);
#329=VERTEX_POINT('',#1002);
#330=VERTEX_POINT('',#1006);
#331=VERTEX_POINT('',#1007);
#332=VERTEX_POINT('',#1009);
#333=VERTEX_POINT('',#1011);
#334=VERTEX_POINT('',#1015);
#335=VERTEX_POINT('',#1016);
#336=VERTEX_POINT('',#1021);
#337=VERTEX_POINT('',#1022);
#338=VERTEX_POINT('',#1032);
#339=VERTEX_POINT('',#1034);
#340=VERTEX_POINT('',#1039);
#341=VERTEX_POINT('',#1041);
#342=VERTEX_POINT('',#1046);
#343=VERTEX_POINT('',#1048);
#344=VERTEX_POINT('',#1053);
#345=VERTEX_POINT('',#1055);
#346=VERTEX_POINT('',#1060);
#347=VERTEX_POINT('',#1061);
#348=VERTEX_POINT('',#1063);
#349=VERTEX_POINT('',#1065);
#350=VERTEX_POINT('',#1069);
#351=VERTEX_POINT('',#1071);
#352=VERTEX_POINT('',#1075);
#353=VERTEX_POINT('',#1077);
#354=VERTEX_POINT('',#1089);
#355=VERTEX_POINT('',#1093);
#356=VERTEX_POINT('',#1098);
#357=VERTEX_POINT('',#1102);
#358=EDGE_CURVE('',#302,#302,#282,.T.);
#359=EDGE_CURVE('',#302,#303,#154,.T.);
#360=EDGE_CURVE('',#303,#303,#283,.T.);
#361=EDGE_CURVE('',#304,#304,#284,.T.);
#362=EDGE_CURVE('',#304,#305,#155,.T.);
#363=EDGE_CURVE('',#305,#305,#285,.T.);
#364=EDGE_CURVE('',#306,#307,#156,.T.);
#365=EDGE_CURVE('',#308,#306,#157,.T.);
#366=EDGE_CURVE('',#309,#308,#158,.T.);
#367=EDGE_CURVE('',#307,#309,#159,.T.);
#368=EDGE_CURVE('',#310,#310,#286,.T.);
#369=EDGE_CURVE('',#311,#311,#287,.T.);
#370=EDGE_CURVE('',#312,#313,#160,.T.);
#371=EDGE_CURVE('',#314,#312,#161,.T.);
#372=EDGE_CURVE('',#315,#314,#162,.T.);
#373=EDGE_CURVE('',#309,#315,#163,.F.);
#374=EDGE_CURVE('',#308,#316,#164,.F.);
#375=EDGE_CURVE('',#316,#317,#165,.T.);
#376=EDGE_CURVE('',#317,#318,#166,.F.);
#377=EDGE_CURVE('',#319,#318,#167,.T.);
#378=EDGE_CURVE('',#313,#319,#168,.F.);
#379=EDGE_CURVE('',#320,#315,#169,.T.);
#380=EDGE_CURVE('',#307,#320,#170,.T.);
#381=EDGE_CURVE('',#321,#321,#288,.T.);
#382=EDGE_CURVE('',#322,#322,#289,.T.);
#383=EDGE_CURVE('',#323,#324,#171,.F.);
#384=EDGE_CURVE('',#318,#323,#172,.F.);
#385=EDGE_CURVE('',#324,#317,#173,.T.);
#386=EDGE_CURVE('',#324,#325,#174,.T.);
#387=EDGE_CURVE('',#325,#316,#175,.T.);
#388=EDGE_CURVE('',#306,#325,#176,.F.);
#389=EDGE_CURVE('',#313,#326,#177,.T.);
#390=EDGE_CURVE('',#327,#319,#178,.T.);
#391=EDGE_CURVE('',#326,#327,#179,.T.);
#392=EDGE_CURVE('',#326,#328,#180,.T.);
#393=EDGE_CURVE('',#323,#327,#181,.T.);
#394=EDGE_CURVE('',#329,#320,#182,.T.);
#395=EDGE_CURVE('',#329,#328,#183,.F.);
#396=EDGE_CURVE('',#330,#331,#184,.T.);
#397=EDGE_CURVE('',#330,#332,#185,.T.);
#398=EDGE_CURVE('',#333,#332,#186,.T.);
#399=EDGE_CURVE('',#331,#333,#187,.T.);
#400=EDGE_CURVE('',#334,#335,#188,.T.);
#401=EDGE_CURVE('',#331,#334,#189,.T.);
#402=EDGE_CURVE('',#335,#333,#190,.T.);
#403=EDGE_CURVE('',#336,#337,#191,.F.);
#404=EDGE_CURVE('',#334,#336,#192,.T.);
#405=EDGE_CURVE('',#337,#335,#193,.F.);
#406=EDGE_CURVE('',#332,#337,#194,.T.);
#407=EDGE_CURVE('',#336,#330,#195,.T.);
#408=EDGE_CURVE('',#338,#338,#290,.T.);
#409=EDGE_CURVE('',#338,#339,#196,.T.);
#410=EDGE_CURVE('',#339,#339,#291,.T.);
#411=EDGE_CURVE('',#340,#340,#292,.T.);
#412=EDGE_CURVE('',#340,#341,#197,.T.);
#413=EDGE_CURVE('',#341,#341,#293,.T.);
#414=EDGE_CURVE('',#342,#342,#294,.T.);
#415=EDGE_CURVE('',#342,#343,#198,.T.);
#416=EDGE_CURVE('',#343,#343,#295,.T.);
#417=EDGE_CURVE('',#344,#344,#296,.T.);
#418=EDGE_CURVE('',#344,#345,#199,.T.);
#419=EDGE_CURVE('',#345,#345,#297,.T.);
#420=EDGE_CURVE('',#346,#347,#200,.F.);
#421=EDGE_CURVE('',#347,#348,#201,.F.);
#422=EDGE_CURVE('',#349,#348,#202,.F.);
#423=EDGE_CURVE('',#346,#349,#203,.T.);
#424=EDGE_CURVE('',#350,#346,#204,.T.);
#425=EDGE_CURVE('',#351,#349,#205,.T.);
#426=EDGE_CURVE('',#350,#351,#206,.T.);
#427=EDGE_CURVE('',#352,#350,#207,.T.);
#428=EDGE_CURVE('',#353,#351,#208,.T.);
#429=EDGE_CURVE('',#352,#353,#209,.T.);
#430=EDGE_CURVE('',#347,#352,#210,.T.);
#431=EDGE_CURVE('',#348,#353,#211,.T.);
#432=EDGE_CURVE('',#314,#329,#212,.T.);
#433=EDGE_CURVE('',#328,#312,#213,.F.);
#434=EDGE_CURVE('',#354,#354,#298,.T.);
#435=EDGE_CURVE('',#354,#321,#214,.T.);
#436=EDGE_CURVE('',#355,#355,#299,.T.);
#437=EDGE_CURVE('',#355,#310,#215,.T.);
#438=EDGE_CURVE('',#356,#356,#300,.T.);
#439=EDGE_CURVE('',#356,#322,#216,.T.);
#440=EDGE_CURVE('',#357,#357,#301,.T.);
#441=EDGE_CURVE('',#357,#311,#217,.T.);
#442=ORIENTED_EDGE('',*,*,#358,.F.);
#443=ORIENTED_EDGE('',*,*,#359,.T.);
#444=ORIENTED_EDGE('',*,*,#360,.F.);
#445=ORIENTED_EDGE('',*,*,#359,.F.);
#446=ORIENTED_EDGE('',*,*,#361,.F.);
#447=ORIENTED_EDGE('',*,*,#362,.T.);
#448=ORIENTED_EDGE('',*,*,#363,.F.);
#449=ORIENTED_EDGE('',*,*,#362,.F.);
#450=ORIENTED_EDGE('',*,*,#361,.T.);
#451=ORIENTED_EDGE('',*,*,#358,.T.);
#452=ORIENTED_EDGE('',*,*,#364,.F.);
#453=ORIENTED_EDGE('',*,*,#365,.F.);
#454=ORIENTED_EDGE('',*,*,#366,.F.);
#455=ORIENTED_EDGE('',*,*,#367,.F.);
#456=ORIENTED_EDGE('',*,*,#368,.F.);
#457=ORIENTED_EDGE('',*,*,#369,.F.);
#458=ORIENTED_EDGE('',*,*,#363,.T.);
#459=ORIENTED_EDGE('',*,*,#370,.F.);
#460=ORIENTED_EDGE('',*,*,#371,.F.);
#461=ORIENTED_EDGE('',*,*,#372,.F.);
#462=ORIENTED_EDGE('',*,*,#373,.F.);
#463=ORIENTED_EDGE('',*,*,#366,.T.);
#464=ORIENTED_EDGE('',*,*,#374,.T.);
#465=ORIENTED_EDGE('',*,*,#375,.T.);
#466=ORIENTED_EDGE('',*,*,#376,.T.);
#467=ORIENTED_EDGE('',*,*,#377,.F.);
#468=ORIENTED_EDGE('',*,*,#378,.F.);
#469=ORIENTED_EDGE('',*,*,#379,.F.);
#470=ORIENTED_EDGE('',*,*,#380,.F.);
#471=ORIENTED_EDGE('',*,*,#367,.T.);
#472=ORIENTED_EDGE('',*,*,#373,.T.);
#473=ORIENTED_EDGE('',*,*,#360,.T.);
#474=ORIENTED_EDGE('',*,*,#381,.F.);
#475=ORIENTED_EDGE('',*,*,#382,.F.);
#476=ORIENTED_EDGE('',*,*,#383,.F.);
#477=ORIENTED_EDGE('',*,*,#384,.F.);
#478=ORIENTED_EDGE('',*,*,#376,.F.);
#479=ORIENTED_EDGE('',*,*,#385,.F.);
#480=ORIENTED_EDGE('',*,*,#386,.F.);
#481=ORIENTED_EDGE('',*,*,#385,.T.);
#482=ORIENTED_EDGE('',*,*,#375,.F.);
#483=ORIENTED_EDGE('',*,*,#387,.F.);
#484=ORIENTED_EDGE('',*,*,#387,.T.);
#485=ORIENTED_EDGE('',*,*,#374,.F.);
#486=ORIENTED_EDGE('',*,*,#365,.T.);
#487=ORIENTED_EDGE('',*,*,#388,.T.);
#488=ORIENTED_EDGE('',*,*,#389,.F.);
#489=ORIENTED_EDGE('',*,*,#378,.T.);
#490=ORIENTED_EDGE('',*,*,#390,.F.);
#491=ORIENTED_EDGE('',*,*,#391,.F.);
#492=ORIENTED_EDGE('',*,*,#392,.F.);
#493=ORIENTED_EDGE('',*,*,#391,.T.);
#494=ORIENTED_EDGE('',*,*,#393,.F.);
#495=ORIENTED_EDGE('',*,*,#383,.T.);
#496=ORIENTED_EDGE('',*,*,#386,.T.);
#497=ORIENTED_EDGE('',*,*,#388,.F.);
#498=ORIENTED_EDGE('',*,*,#364,.T.);
#499=ORIENTED_EDGE('',*,*,#380,.T.);
#500=ORIENTED_EDGE('',*,*,#394,.F.);
#501=ORIENTED_EDGE('',*,*,#395,.T.);
#502=ORIENTED_EDGE('',*,*,#396,.F.);
#503=ORIENTED_EDGE('',*,*,#397,.T.);
#504=ORIENTED_EDGE('',*,*,#398,.F.);
#505=ORIENTED_EDGE('',*,*,#399,.F.);
#506=ORIENTED_EDGE('',*,*,#400,.F.);
#507=ORIENTED_EDGE('',*,*,#401,.F.);
#508=ORIENTED_EDGE('',*,*,#399,.T.);
#509=ORIENTED_EDGE('',*,*,#402,.F.);
#510=ORIENTED_EDGE('',*,*,#403,.F.);
#511=ORIENTED_EDGE('',*,*,#404,.F.);
#512=ORIENTED_EDGE('',*,*,#400,.T.);
#513=ORIENTED_EDGE('',*,*,#405,.F.);
#514=ORIENTED_EDGE('',*,*,#406,.F.);
#515=ORIENTED_EDGE('',*,*,#397,.F.);
#516=ORIENTED_EDGE('',*,*,#407,.F.);
#517=ORIENTED_EDGE('',*,*,#403,.T.);
#518=ORIENTED_EDGE('',*,*,#406,.T.);
#519=ORIENTED_EDGE('',*,*,#405,.T.);
#520=ORIENTED_EDGE('',*,*,#402,.T.);
#521=ORIENTED_EDGE('',*,*,#398,.T.);
#522=ORIENTED_EDGE('',*,*,#393,.T.);
#523=ORIENTED_EDGE('',*,*,#390,.T.);
#524=ORIENTED_EDGE('',*,*,#377,.T.);
#525=ORIENTED_EDGE('',*,*,#384,.T.);
#526=ORIENTED_EDGE('',*,*,#407,.T.);
#527=ORIENTED_EDGE('',*,*,#396,.T.);
#528=ORIENTED_EDGE('',*,*,#401,.T.);
#529=ORIENTED_EDGE('',*,*,#404,.T.);
#530=ORIENTED_EDGE('',*,*,#408,.F.);
#531=ORIENTED_EDGE('',*,*,#409,.T.);
#532=ORIENTED_EDGE('',*,*,#410,.F.);
#533=ORIENTED_EDGE('',*,*,#409,.F.);
#534=ORIENTED_EDGE('',*,*,#408,.T.);
#535=ORIENTED_EDGE('',*,*,#411,.F.);
#536=ORIENTED_EDGE('',*,*,#412,.T.);
#537=ORIENTED_EDGE('',*,*,#413,.F.);
#538=ORIENTED_EDGE('',*,*,#412,.F.);
#539=ORIENTED_EDGE('',*,*,#411,.T.);
#540=ORIENTED_EDGE('',*,*,#414,.F.);
#541=ORIENTED_EDGE('',*,*,#415,.T.);
#542=ORIENTED_EDGE('',*,*,#416,.F.);
#543=ORIENTED_EDGE('',*,*,#415,.F.);
#544=ORIENTED_EDGE('',*,*,#414,.T.);
#545=ORIENTED_EDGE('',*,*,#417,.F.);
#546=ORIENTED_EDGE('',*,*,#418,.T.);
#547=ORIENTED_EDGE('',*,*,#419,.F.);
#548=ORIENTED_EDGE('',*,*,#418,.F.);
#549=ORIENTED_EDGE('',*,*,#417,.T.);
#550=ORIENTED_EDGE('',*,*,#420,.T.);
#551=ORIENTED_EDGE('',*,*,#421,.T.);
#552=ORIENTED_EDGE('',*,*,#422,.F.);
#553=ORIENTED_EDGE('',*,*,#423,.F.);
#554=ORIENTED_EDGE('',*,*,#424,.T.);
#555=ORIENTED_EDGE('',*,*,#423,.T.);
#556=ORIENTED_EDGE('',*,*,#425,.F.);
#557=ORIENTED_EDGE('',*,*,#426,.F.);
#558=ORIENTED_EDGE('',*,*,#427,.T.);
#559=ORIENTED_EDGE('',*,*,#426,.T.);
#560=ORIENTED_EDGE('',*,*,#428,.F.);
#561=ORIENTED_EDGE('',*,*,#429,.F.);
#562=ORIENTED_EDGE('',*,*,#430,.T.);
#563=ORIENTED_EDGE('',*,*,#429,.T.);
#564=ORIENTED_EDGE('',*,*,#431,.F.);
#565=ORIENTED_EDGE('',*,*,#421,.F.);
#566=ORIENTED_EDGE('',*,*,#432,.F.);
#567=ORIENTED_EDGE('',*,*,#371,.T.);
#568=ORIENTED_EDGE('',*,*,#433,.F.);
#569=ORIENTED_EDGE('',*,*,#395,.F.);
#570=ORIENTED_EDGE('',*,*,#370,.T.);
#571=ORIENTED_EDGE('',*,*,#389,.T.);
#572=ORIENTED_EDGE('',*,*,#392,.T.);
#573=ORIENTED_EDGE('',*,*,#433,.T.);
#574=ORIENTED_EDGE('',*,*,#410,.T.);
#575=ORIENTED_EDGE('',*,*,#413,.T.);
#576=ORIENTED_EDGE('',*,*,#416,.T.);
#577=ORIENTED_EDGE('',*,*,#419,.T.);
#578=ORIENTED_EDGE('',*,*,#431,.T.);
#579=ORIENTED_EDGE('',*,*,#428,.T.);
#580=ORIENTED_EDGE('',*,*,#425,.T.);
#581=ORIENTED_EDGE('',*,*,#422,.T.);
#582=ORIENTED_EDGE('',*,*,#372,.T.);
#583=ORIENTED_EDGE('',*,*,#432,.T.);
#584=ORIENTED_EDGE('',*,*,#394,.T.);
#585=ORIENTED_EDGE('',*,*,#379,.T.);
#586=ORIENTED_EDGE('',*,*,#430,.F.);
#587=ORIENTED_EDGE('',*,*,#420,.F.);
#588=ORIENTED_EDGE('',*,*,#424,.F.);
#589=ORIENTED_EDGE('',*,*,#427,.F.);
#590=ORIENTED_EDGE('',*,*,#434,.F.);
#591=ORIENTED_EDGE('',*,*,#435,.T.);
#592=ORIENTED_EDGE('',*,*,#381,.T.);
#593=ORIENTED_EDGE('',*,*,#435,.F.);
#594=ORIENTED_EDGE('',*,*,#436,.F.);
#595=ORIENTED_EDGE('',*,*,#437,.T.);
#596=ORIENTED_EDGE('',*,*,#368,.T.);
#597=ORIENTED_EDGE('',*,*,#437,.F.);
#598=ORIENTED_EDGE('',*,*,#436,.T.);
#599=ORIENTED_EDGE('',*,*,#434,.T.);
#600=ORIENTED_EDGE('',*,*,#438,.F.);
#601=ORIENTED_EDGE('',*,*,#439,.T.);
#602=ORIENTED_EDGE('',*,*,#382,.T.);
#603=ORIENTED_EDGE('',*,*,#439,.F.);
#604=ORIENTED_EDGE('',*,*,#440,.F.);
#605=ORIENTED_EDGE('',*,*,#441,.T.);
#606=ORIENTED_EDGE('',*,*,#369,.T.);
#607=ORIENTED_EDGE('',*,*,#441,.F.);
#608=ORIENTED_EDGE('',*,*,#440,.T.);
#609=ORIENTED_EDGE('',*,*,#438,.T.);
#610=CYLINDRICAL_SURFACE('',#675,2.00000000000001);
#611=CYLINDRICAL_SURFACE('',#678,4.);
#612=CYLINDRICAL_SURFACE('',#703,2.05);
#613=CYLINDRICAL_SURFACE('',#707,2.05);
#614=CYLINDRICAL_SURFACE('',#711,2.05);
#615=CYLINDRICAL_SURFACE('',#715,2.05);
#616=CYLINDRICAL_SURFACE('',#726,2.00000000000001);
#617=CYLINDRICAL_SURFACE('',#728,4.);
#618=CYLINDRICAL_SURFACE('',#731,2.00000000000001);
#619=CYLINDRICAL_SURFACE('',#733,4.);
#620=ADVANCED_FACE('',(#59),#610,.F.);
#621=ADVANCED_FACE('',(#60),#611,.T.);
#622=ADVANCED_FACE('',(#61,#15),#28,.T.);
#623=ADVANCED_FACE('',(#62,#16,#17,#18),#29,.T.);
#624=ADVANCED_FACE('',(#63),#30,.F.);
#625=ADVANCED_FACE('',(#64),#31,.F.);
#626=ADVANCED_FACE('',(#65),#32,.T.);
#627=ADVANCED_FACE('',(#66),#33,.T.);
#628=ADVANCED_FACE('',(#67),#34,.T.);
#629=ADVANCED_FACE('',(#68),#35,.T.);
#630=ADVANCED_FACE('',(#69),#36,.F.);
#631=ADVANCED_FACE('',(#70),#37,.F.);
#632=ADVANCED_FACE('',(#71),#38,.F.);
#633=ADVANCED_FACE('',(#72),#39,.F.);
#634=ADVANCED_FACE('',(#73),#40,.T.);
#635=ADVANCED_FACE('',(#74),#41,.T.);
#636=ADVANCED_FACE('',(#75),#42,.T.);
#637=ADVANCED_FACE('',(#76),#43,.T.);
#638=ADVANCED_FACE('',(#77,#19),#44,.T.);
#639=ADVANCED_FACE('',(#78),#45,.F.);
#640=ADVANCED_FACE('',(#79),#612,.F.);
#641=ADVANCED_FACE('',(#80),#46,.T.);
#642=ADVANCED_FACE('',(#81),#613,.F.);
#643=ADVANCED_FACE('',(#82),#47,.T.);
#644=ADVANCED_FACE('',(#83),#614,.F.);
#645=ADVANCED_FACE('',(#84),#48,.T.);
#646=ADVANCED_FACE('',(#85),#615,.F.);
#647=ADVANCED_FACE('',(#86),#49,.T.);
#648=ADVANCED_FACE('',(#87),#50,.T.);
#649=ADVANCED_FACE('',(#88),#51,.T.);
#650=ADVANCED_FACE('',(#89),#52,.T.);
#651=ADVANCED_FACE('',(#90),#53,.T.);
#652=ADVANCED_FACE('',(#91),#54,.T.);
#653=ADVANCED_FACE('',(#92,#20,#21,#22,#23,#24),#55,.T.);
#654=ADVANCED_FACE('',(#93,#25),#56,.F.);
#655=ADVANCED_FACE('',(#94),#616,.F.);
#656=ADVANCED_FACE('',(#95),#617,.T.);
#657=ADVANCED_FACE('',(#96,#26),#57,.T.);
#658=ADVANCED_FACE('',(#97),#618,.F.);
#659=ADVANCED_FACE('',(#98),#619,.T.);
#660=ADVANCED_FACE('',(#99,#27),#58,.T.);
#661=CLOSED_SHELL('',(#620,#621,#622,#623,#624,#625,#626,#627,#628,#629,
#630,#631,#632,#633,#634,#635,#636,#637,#638,#639,#640,#641,#642,#643,#644,
#645,#646,#647,#648,#649,#650,#651,#652,#653,#654,#655,#656,#657,#658,#659,
#660));
#662=DERIVED_UNIT_ELEMENT(#664,1.);
#663=DERIVED_UNIT_ELEMENT(#1111,-3.);
#664=(
MASS_UNIT()
NAMED_UNIT(*)
SI_UNIT(.KILO.,.GRAM.)
);
#665=DERIVED_UNIT((#662,#663));
#666=MEASURE_REPRESENTATION_ITEM('density measure',
POSITIVE_RATIO_MEASURE(7850.),#665);
#667=PROPERTY_DEFINITION_REPRESENTATION(#672,#669);
#668=PROPERTY_DEFINITION_REPRESENTATION(#673,#670);
#669=REPRESENTATION('material name',(#671),#1108);
#670=REPRESENTATION('density',(#666),#1108);
#671=DESCRIPTIVE_REPRESENTATION_ITEM('Acero','Acero');
#672=PROPERTY_DEFINITION('material property','material name',#1118);
#673=PROPERTY_DEFINITION('material property','density of part',#1118);
#674=AXIS2_PLACEMENT_3D('',#924,#736,#737);
#675=AXIS2_PLACEMENT_3D('',#925,#738,#739);
#676=AXIS2_PLACEMENT_3D('',#927,#740,#741);
#677=AXIS2_PLACEMENT_3D('',#930,#743,#744);
#678=AXIS2_PLACEMENT_3D('',#931,#745,#746);
#679=AXIS2_PLACEMENT_3D('',#933,#747,#748);
#680=AXIS2_PLACEMENT_3D('',#936,#750,#751);
#681=AXIS2_PLACEMENT_3D('',#937,#752,#753);
#682=AXIS2_PLACEMENT_3D('',#938,#754,#755);
#683=AXIS2_PLACEMENT_3D('',#948,#760,#761);
#684=AXIS2_PLACEMENT_3D('',#950,#762,#763);
#685=AXIS2_PLACEMENT_3D('',#951,#764,#765);
#686=AXIS2_PLACEMENT_3D('',#969,#775,#776);
#687=AXIS2_PLACEMENT_3D('',#973,#779,#780);
#688=AXIS2_PLACEMENT_3D('',#974,#781,#782);
#689=AXIS2_PLACEMENT_3D('',#976,#783,#784);
#690=AXIS2_PLACEMENT_3D('',#977,#785,#786);
#691=AXIS2_PLACEMENT_3D('',#979,#787,#788);
#692=AXIS2_PLACEMENT_3D('',#980,#789,#790);
#693=AXIS2_PLACEMENT_3D('',#986,#794,#795);
#694=AXIS2_PLACEMENT_3D('',#990,#798,#799);
#695=AXIS2_PLACEMENT_3D('',#992,#801,#802);
#696=AXIS2_PLACEMENT_3D('',#998,#806,#807);
#697=AXIS2_PLACEMENT_3D('',#1005,#812,#813);
#698=AXIS2_PLACEMENT_3D('',#1014,#818,#819);
#699=AXIS2_PLACEMENT_3D('',#1020,#823,#824);
#700=AXIS2_PLACEMENT_3D('',#1026,#828,#829);
#701=AXIS2_PLACEMENT_3D('',#1029,#832,#833);
#702=AXIS2_PLACEMENT_3D('',#1030,#834,#835);
#703=AXIS2_PLACEMENT_3D('',#1031,#836,#837);
#704=AXIS2_PLACEMENT_3D('',#1033,#838,#839);
#705=AXIS2_PLACEMENT_3D('',#1036,#841,#842);
#706=AXIS2_PLACEMENT_3D('',#1037,#843,#844);
#707=AXIS2_PLACEMENT_3D('',#1038,#845,#846);
#708=AXIS2_PLACEMENT_3D('',#1040,#847,#848);
#709=AXIS2_PLACEMENT_3D('',#1043,#850,#851);
#710=AXIS2_PLACEMENT_3D('',#1044,#852,#853);
#711=AXIS2_PLACEMENT_3D('',#1045,#854,#855);
#712=AXIS2_PLACEMENT_3D('',#1047,#856,#857);
#713=AXIS2_PLACEMENT_3D('',#1050,#859,#860);
#714=AXIS2_PLACEMENT_3D('',#1051,#861,#862);
#715=AXIS2_PLACEMENT_3D('',#1052,#863,#864);
#716=AXIS2_PLACEMENT_3D('',#1054,#865,#866);
#717=AXIS2_PLACEMENT_3D('',#1057,#868,#869);
#718=AXIS2_PLACEMENT_3D('',#1058,#870,#871);
#719=AXIS2_PLACEMENT_3D('',#1059,#872,#873);
#720=AXIS2_PLACEMENT_3D('',#1068,#878,#879);
#721=AXIS2_PLACEMENT_3D('',#1074,#883,#884);
#722=AXIS2_PLACEMENT_3D('',#1080,#888,#889);
#723=AXIS2_PLACEMENT_3D('',#1083,#892,#893);
#724=AXIS2_PLACEMENT_3D('',#1086,#896,#897);
#725=AXIS2_PLACEMENT_3D('',#1087,#898,#899);
#726=AXIS2_PLACEMENT_3D('',#1088,#900,#901);
#727=AXIS2_PLACEMENT_3D('',#1090,#902,#903);
#728=AXIS2_PLACEMENT_3D('',#1092,#905,#906);
#729=AXIS2_PLACEMENT_3D('',#1094,#907,#908);
#730=AXIS2_PLACEMENT_3D('',#1096,#910,#911);
#731=AXIS2_PLACEMENT_3D('',#1097,#912,#913);
#732=AXIS2_PLACEMENT_3D('',#1099,#914,#915);
#733=AXIS2_PLACEMENT_3D('',#1101,#917,#918);
#734=AXIS2_PLACEMENT_3D('',#1103,#919,#920);
#735=AXIS2_PLACEMENT_3D('',#1105,#922,#923);
#736=DIRECTION('axis',(0.,0.,1.));
#737=DIRECTION('refdir',(1.,0.,0.));
#738=DIRECTION('center_axis',(0.,0.,1.));
#739=DIRECTION('ref_axis',(-1.,1.22464679914735E-16,0.));
#740=DIRECTION('center_axis',(0.,0.,-1.));
#741=DIRECTION('ref_axis',(-1.,1.22464679914735E-16,0.));
#742=DIRECTION('',(0.,0.,-1.));
#743=DIRECTION('center_axis',(0.,0.,1.));
#744=DIRECTION('ref_axis',(-1.,1.22464679914735E-16,0.));
#745=DIRECTION('center_axis',(0.,0.,1.));
#746=DIRECTION('ref_axis',(-1.,1.22464679914735E-16,0.));
#747=DIRECTION('center_axis',(0.,0.,1.));
#748=DIRECTION('ref_axis',(-1.,1.22464679914735E-16,0.));
#749=DIRECTION('',(0.,0.,-1.));
#750=DIRECTION('center_axis',(0.,0.,-1.));
#751=DIRECTION('ref_axis',(-1.,1.22464679914735E-16,0.));
#752=DIRECTION('center_axis',(0.,0.,1.));
#753=DIRECTION('ref_axis',(-1.,1.22464679914735E-16,0.));
#754=DIRECTION('center_axis',(0.,0.,1.));
#755=DIRECTION('ref_axis',(1.,0.,0.));
#756=DIRECTION('',(1.,0.,0.));
#757=DIRECTION('',(0.,1.,0.));
#758=DIRECTION('',(-1.,0.,0.));
#759=DIRECTION('',(0.,-1.,0.));
#760=DIRECTION('center_axis',(0.,0.,1.));
#761=DIRECTION('ref_axis',(-1.,1.22464679914735E-16,0.));
#762=DIRECTION('center_axis',(0.,0.,1.));
#763=DIRECTION('ref_axis',(-1.,1.22464679914735E-16,0.));
#764=DIRECTION('center_axis',(0.,-1.,0.));
#765=DIRECTION('ref_axis',(1.,0.,0.));
#766=DIRECTION('',(1.,0.,0.));
#767=DIRECTION('',(0.,0.,1.));
#768=DIRECTION('',(-1.,0.,0.));
#769=DIRECTION('',(0.,0.,-1.));
#770=DIRECTION('',(0.,0.,-1.));
#771=DIRECTION('',(1.,0.,2.6053233644537E-14));
#772=DIRECTION('',(2.57571741713036E-14,0.,-1.));
#773=DIRECTION('',(-1.,0.,0.));
#774=DIRECTION('',(0.,0.,-1.));
#775=DIRECTION('center_axis',(1.,0.,0.));
#776=DIRECTION('ref_axis',(0.,1.,0.));
#777=DIRECTION('',(0.,-1.,0.));
#778=DIRECTION('',(0.,0.,1.));
#779=DIRECTION('center_axis',(0.,0.,1.));
#780=DIRECTION('ref_axis',(1.,0.,0.));
#781=DIRECTION('center_axis',(0.,0.,1.));
#782=DIRECTION('ref_axis',(1.,0.,0.));
#783=DIRECTION('center_axis',(0.,0.,-1.));
#784=DIRECTION('ref_axis',(-1.,1.22464679914735E-16,0.));
#785=DIRECTION('center_axis',(0.,0.,1.));
#786=DIRECTION('ref_axis',(1.,0.,0.));
#787=DIRECTION('center_axis',(0.,0.,-1.));
#788=DIRECTION('ref_axis',(-1.,1.22464679914735E-16,0.));
#789=DIRECTION('center_axis',(1.,0.,2.57571741713036E-14));
#790=DIRECTION('ref_axis',(0.,1.,0.));
#791=DIRECTION('',(-2.57571741713036E-14,0.,1.));
#792=DIRECTION('',(0.,-1.,0.));
#793=DIRECTION('',(0.,-1.,0.));
#794=DIRECTION('center_axis',(-2.6053233644537E-14,0.,1.));
#795=DIRECTION('ref_axis',(1.,0.,2.6053233644537E-14));
#796=DIRECTION('',(-1.,0.,-2.6053233644537E-14));
#797=DIRECTION('',(0.,-1.,0.));
#798=DIRECTION('center_axis',(-1.,0.,0.));
#799=DIRECTION('ref_axis',(0.,-1.,0.));
#800=DIRECTION('',(0.,0.,-1.));
#801=DIRECTION('center_axis',(1.,0.,0.));
#802=DIRECTION('ref_axis',(0.,1.,0.));
#803=DIRECTION('',(0.,1.,0.));
#804=DIRECTION('',(0.,-1.,0.));
#805=DIRECTION('',(0.,0.,1.));
#806=DIRECTION('center_axis',(0.,1.,0.));
#807=DIRECTION('ref_axis',(-1.,0.,0.));
#808=DIRECTION('',(-1.,0.,0.));
#809=DIRECTION('',(1.,0.,0.));
#810=DIRECTION('',(1.,0.,0.));
#811=DIRECTION('',(0.,0.,-1.));
#812=DIRECTION('center_axis',(1.,0.,0.));
#813=DIRECTION('ref_axis',(0.,1.,0.));
#814=DIRECTION('',(0.,-1.,0.));
#815=DIRECTION('',(0.,0.,1.));
#816=DIRECTION('',(0.,1.,0.));
#817=DIRECTION('',(0.,0.,1.));
#818=DIRECTION('center_axis',(0.,-1.,0.));
#819=DIRECTION('ref_axis',(1.,0.,0.));
#820=DIRECTION('',(0.,0.,1.));
#821=DIRECTION('',(-1.,0.,0.));
#822=DIRECTION('',(1.,0.,0.));
#823=DIRECTION('center_axis',(-1.,0.,0.));
#824=DIRECTION('ref_axis',(0.,-1.,0.));
#825=DIRECTION('',(0.,0.,-1.));
#826=DIRECTION('',(0.,1.,0.));
#827=DIRECTION('',(0.,1.,0.));
#828=DIRECTION('center_axis',(0.,1.,0.));
#829=DIRECTION('ref_axis',(-1.,0.,0.));
#830=DIRECTION('',(-1.,0.,0.));
#831=DIRECTION('',(1.,0.,0.));
#832=DIRECTION('center_axis',(0.,0.,1.));
#833=DIRECTION('ref_axis',(1.,0.,0.));
#834=DIRECTION('center_axis',(0.,0.,1.));
#835=DIRECTION('ref_axis',(1.,0.,0.));
#836=DIRECTION('center_axis',(0.,0.,1.));
#837=DIRECTION('ref_axis',(1.,0.,0.));
#838=DIRECTION('center_axis',(0.,0.,1.));
#839=DIRECTION('ref_axis',(1.,0.,0.));
#840=DIRECTION('',(0.,0.,1.));
#841=DIRECTION('center_axis',(0.,0.,-1.));
#842=DIRECTION('ref_axis',(1.,0.,0.));
#843=DIRECTION('center_axis',(0.,0.,1.));
#844=DIRECTION('ref_axis',(1.,0.,0.));
#845=DIRECTION('center_axis',(0.,0.,1.));
#846=DIRECTION('ref_axis',(1.,0.,0.));
#847=DIRECTION('center_axis',(0.,0.,1.));
#848=DIRECTION('ref_axis',(1.,0.,0.));
#849=DIRECTION('',(0.,0.,1.));
#850=DIRECTION('center_axis',(0.,0.,-1.));
#851=DIRECTION('ref_axis',(1.,0.,0.));
#852=DIRECTION('center_axis',(0.,0.,1.));
#853=DIRECTION('ref_axis',(1.,0.,0.));
#854=DIRECTION('center_axis',(0.,0.,1.));
#855=DIRECTION('ref_axis',(1.,0.,0.));
#856=DIRECTION('center_axis',(0.,0.,1.));
#857=DIRECTION('ref_axis',(1.,0.,0.));
#858=DIRECTION('',(0.,0.,1.));
#859=DIRECTION('center_axis',(0.,0.,-1.));
#860=DIRECTION('ref_axis',(1.,0.,0.));
#861=DIRECTION('center_axis',(0.,0.,1.));
#862=DIRECTION('ref_axis',(1.,0.,0.));
#863=DIRECTION('center_axis',(0.,0.,1.));
#864=DIRECTION('ref_axis',(1.,0.,0.));
#865=DIRECTION('center_axis',(0.,0.,1.));
#866=DIRECTION('ref_axis',(1.,0.,0.));
#867=DIRECTION('',(0.,0.,1.));
#868=DIRECTION('center_axis',(0.,0.,-1.));
#869=DIRECTION('ref_axis',(1.,0.,0.));
#870=DIRECTION('center_axis',(0.,0.,1.));
#871=DIRECTION('ref_axis',(1.,0.,0.));
#872=DIRECTION('center_axis',(1.,0.,0.));
#873=DIRECTION('ref_axis',(0.,1.,0.));
#874=DIRECTION('',(0.,-1.,0.));
#875=DIRECTION('',(0.,0.,-1.));
#876=DIRECTION('',(0.,-1.,0.));
#877=DIRECTION('',(0.,0.,1.));
#878=DIRECTION('center_axis',(0.,1.,0.));
#879=DIRECTION('ref_axis',(-1.,0.,0.));
#880=DIRECTION('',(-1.,0.,0.));
#881=DIRECTION('',(-1.,0.,0.));
#882=DIRECTION('',(0.,0.,1.));
#883=DIRECTION('center_axis',(-1.,0.,0.));
#884=DIRECTION('ref_axis',(0.,-1.,0.));
#885=DIRECTION('',(0.,-1.,0.));
#886=DIRECTION('',(0.,-1.,0.));
#887=DIRECTION('',(0.,0.,1.));
#888=DIRECTION('center_axis',(0.,-1.,0.));
#889=DIRECTION('ref_axis',(1.,0.,0.));
#890=DIRECTION('',(1.,0.,0.));
#891=DIRECTION('',(1.,0.,0.));
#892=DIRECTION('center_axis',(-1.,0.,0.));
#893=DIRECTION('ref_axis',(0.,-1.,0.));
#894=DIRECTION('',(0.,1.,0.));
#895=DIRECTION('',(0.,1.,0.));
#896=DIRECTION('center_axis',(0.,0.,1.));
#897=DIRECTION('ref_axis',(1.,0.,0.));
#898=DIRECTION('center_axis',(0.,0.,1.));
#899=DIRECTION('ref_axis',(-1.,0.,0.));
#900=DIRECTION('center_axis',(0.,0.,1.));
#901=DIRECTION('ref_axis',(-1.,1.22464679914735E-16,0.));
#902=DIRECTION('center_axis',(0.,0.,-1.));
#903=DIRECTION('ref_axis',(-1.,1.22464679914735E-16,0.));
#904=DIRECTION('',(0.,0.,-1.));
#905=DIRECTION('center_axis',(0.,0.,1.));
#906=DIRECTION('ref_axis',(-1.,1.22464679914735E-16,0.));
#907=DIRECTION('center_axis',(0.,0.,1.));
#908=DIRECTION('ref_axis',(-1.,1.22464679914735E-16,0.));
#909=DIRECTION('',(0.,0.,-1.));
#910=DIRECTION('center_axis',(0.,0.,1.));
#911=DIRECTION('ref_axis',(-1.,1.22464679914735E-16,0.));
#912=DIRECTION('center_axis',(0.,0.,1.));
#913=DIRECTION('ref_axis',(-1.,1.22464679914735E-16,0.));
#914=DIRECTION('center_axis',(0.,0.,-1.));
#915=DIRECTION('ref_axis',(-1.,1.22464679914735E-16,0.));
#916=DIRECTION('',(0.,0.,-1.));
#917=DIRECTION('center_axis',(0.,0.,1.));
#918=DIRECTION('ref_axis',(-1.,1.22464679914735E-16,0.));
#919=DIRECTION('center_axis',(0.,0.,1.));
#920=DIRECTION('ref_axis',(-1.,1.22464679914735E-16,0.));
#921=DIRECTION('',(0.,0.,-1.));
#922=DIRECTION('center_axis',(0.,0.,1.));
#923=DIRECTION('ref_axis',(-1.,1.22464679914735E-16,0.));
#924=CARTESIAN_POINT('',(0.,0.,0.));
#925=CARTESIAN_POINT('Origin',(-84.03,43.8,5.));
#926=CARTESIAN_POINT('',(-82.03,43.8,13.));
#927=CARTESIAN_POINT('Origin',(-84.03,43.8,13.));
#928=CARTESIAN_POINT('',(-82.03,43.8,5.));
#929=CARTESIAN_POINT('',(-82.03,43.8,5.));
#930=CARTESIAN_POINT('Origin',(-84.03,43.8,5.));
#931=CARTESIAN_POINT('Origin',(-84.03,43.8,5.));
#932=CARTESIAN_POINT('',(-80.03,43.8,13.));
#933=CARTESIAN_POINT('Origin',(-84.03,43.8,13.));
#934=CARTESIAN_POINT('',(-80.03,43.8,5.));
#935=CARTESIAN_POINT('',(-80.03,43.8,5.));
#936=CARTESIAN_POINT('Origin',(-84.03,43.8,5.));
#937=CARTESIAN_POINT('Origin',(-84.03,43.8,13.));
#938=CARTESIAN_POINT('Origin',(-85.,17.5,5.));
#939=CARTESIAN_POINT('',(-205.,80.,5.));
#940=CARTESIAN_POINT('',(35.,80.,5.));
#941=CARTESIAN_POINT('',(-22.5,80.,5.));
#942=CARTESIAN_POINT('',(-205.,-45.,5.));
#943=CARTESIAN_POINT('',(-205.,51.25,5.));
#944=CARTESIAN_POINT('',(35.,-45.,5.));
#945=CARTESIAN_POINT('',(-147.5,-45.,5.));
#946=CARTESIAN_POINT('',(35.,-16.25,5.));
#947=CARTESIAN_POINT('',(-80.03,-14.2,5.));
#948=CARTESIAN_POINT('Origin',(-84.03,-14.2,5.));
#949=CARTESIAN_POINT('',(-26.,55.8,5.));
#950=CARTESIAN_POINT('Origin',(-30.,55.8,5.));
#951=CARTESIAN_POINT('Origin',(-210.,-45.,0.));
#952=CARTESIAN_POINT('',(-132.,-45.,35.));
#953=CARTESIAN_POINT('',(35.,-45.,35.));
#954=CARTESIAN_POINT('',(35.,-45.,35.));
#955=CARTESIAN_POINT('',(-132.,-45.,25.));
#956=CARTESIAN_POINT('',(-132.,-45.,25.));
#957=CARTESIAN_POINT('',(35.,-45.,25.));
#958=CARTESIAN_POINT('',(35.,-45.,25.));
#959=CARTESIAN_POINT('',(35.,-45.,0.));
#960=CARTESIAN_POINT('',(-205.,-45.,44.9999999999982));
#961=CARTESIAN_POINT('',(-205.,-45.,0.));
#962=CARTESIAN_POINT('',(-132.,-45.,45.0000000000001));
#963=CARTESIAN_POINT('',(-193.750000000001,-45.,44.9999999999985));
#964=CARTESIAN_POINT('',(-132.,-45.,50.));
#965=CARTESIAN_POINT('',(-131.999999999999,-45.,22.500000000001));
#966=CARTESIAN_POINT('',(35.,-45.,50.));
#967=CARTESIAN_POINT('',(-147.5,-45.,50.));
#968=CARTESIAN_POINT('',(35.,-45.,0.));
#969=CARTESIAN_POINT('Origin',(35.,-50.,0.));
#970=CARTESIAN_POINT('',(35.,80.,25.));
#971=CARTESIAN_POINT('',(35.,80.,25.));
#972=CARTESIAN_POINT('',(35.,80.,0.));
#973=CARTESIAN_POINT('Origin',(-85.,17.5,5.));
#974=CARTESIAN_POINT('Origin',(-85.,17.5,5.));
#975=CARTESIAN_POINT('',(-82.03,-14.2,5.));
#976=CARTESIAN_POINT('Origin',(-84.03,-14.2,5.));
#977=CARTESIAN_POINT('Origin',(-85.,17.5,5.));
#978=CARTESIAN_POINT('',(-28.,55.8,5.));
#979=CARTESIAN_POINT('Origin',(-30.,55.8,5.));
#980=CARTESIAN_POINT('Origin',(-132.,-50.,45.0000000000001));
#981=CARTESIAN_POINT('',(-132.,80.,50.));
#982=CARTESIAN_POINT('',(-132.,80.,45.0000000000001));
#983=CARTESIAN_POINT('',(-131.999999999999,80.,22.4999999999978));
#984=CARTESIAN_POINT('',(-132.,-16.25,50.));
#985=CARTESIAN_POINT('',(-132.,-16.25,45.0000000000001));
#986=CARTESIAN_POINT('Origin',(-177.5,17.5,44.9999999999989));
#987=CARTESIAN_POINT('',(-205.,80.,44.9999999999982));
#988=CARTESIAN_POINT('',(-68.7500000000005,80.,45.0000000000017));
#989=CARTESIAN_POINT('',(-205.,51.25,44.9999999999982));
#990=CARTESIAN_POINT('Origin',(-205.,85.,0.));
#991=CARTESIAN_POINT('',(-205.,80.,0.));
#992=CARTESIAN_POINT('Origin',(35.,-50.,0.));
#993=CARTESIAN_POINT('',(35.,80.,35.));
#994=CARTESIAN_POINT('',(35.,80.,35.));
#995=CARTESIAN_POINT('',(35.,80.,50.));
#996=CARTESIAN_POINT('',(35.,-16.25,50.));
#997=CARTESIAN_POINT('',(35.,80.,0.));
#998=CARTESIAN_POINT('Origin',(40.,80.,0.));
#999=CARTESIAN_POINT('',(-132.,80.,35.));
#1000=CARTESIAN_POINT('',(-140.,80.,35.));
#1001=CARTESIAN_POINT('',(-22.5,80.,50.));
#1002=CARTESIAN_POINT('',(-132.,80.,25.));
#1003=CARTESIAN_POINT('',(-140.,80.,25.));
#1004=CARTESIAN_POINT('',(-132.,80.,25.));
#1005=CARTESIAN_POINT('Origin',(40.,-50.,0.));
#1006=CARTESIAN_POINT('',(40.,85.,0.));
#1007=CARTESIAN_POINT('',(40.,-50.,0.));
#1008=CARTESIAN_POINT('',(40.,85.,0.));
#1009=CARTESIAN_POINT('',(40.,85.,50.));
#1010=CARTESIAN_POINT('',(40.,85.,0.));
#1011=CARTESIAN_POINT('',(40.,-50.,50.));
#1012=CARTESIAN_POINT('',(40.,85.,50.));
#1013=CARTESIAN_POINT('',(40.,-50.,0.));
#1014=CARTESIAN_POINT('Origin',(-210.,-50.,0.));
#1015=CARTESIAN_POINT('',(-215.,-50.,0.));
#1016=CARTESIAN_POINT('',(-215.,-50.,50.));
#1017=CARTESIAN_POINT('',(-215.,-50.,0.));
#1018=CARTESIAN_POINT('',(40.,-50.,0.));
#1019=CARTESIAN_POINT('',(40.,-50.,50.));
#1020=CARTESIAN_POINT('Origin',(-215.,85.,0.));
#1021=CARTESIAN_POINT('',(-215.,85.,0.));
#1022=CARTESIAN_POINT('',(-215.,85.,50.));
#1023=CARTESIAN_POINT('',(-215.,85.,0.));
#1024=CARTESIAN_POINT('',(-215.,51.25,0.));
#1025=CARTESIAN_POINT('',(-215.,51.25,50.));
#1026=CARTESIAN_POINT('Origin',(40.,85.,0.));
#1027=CARTESIAN_POINT('',(-210.,85.,50.));
#1028=CARTESIAN_POINT('',(-210.,85.,0.));
#1029=CARTESIAN_POINT('Origin',(-85.,17.5,50.));
#1030=CARTESIAN_POINT('Origin',(-85.,17.5,0.));
#1031=CARTESIAN_POINT('Origin',(-126.999999552965,-40.0000005960464,26.5));
#1032=CARTESIAN_POINT('',(-129.049999552965,-40.0000005960464,26.5));
#1033=CARTESIAN_POINT('Origin',(-126.999999552965,-40.0000005960464,26.5));
#1034=CARTESIAN_POINT('',(-129.049999552965,-40.0000005960464,35.));
#1035=CARTESIAN_POINT('',(-129.049999552965,-40.0000005960464,26.5));
#1036=CARTESIAN_POINT('Origin',(-126.999999552965,-40.0000005960464,35.));
#1037=CARTESIAN_POINT('Origin',(-126.999999552965,-40.0000005960464,26.5));
#1038=CARTESIAN_POINT('Origin',(-126.999999552965,74.9999994039536,26.5));
#1039=CARTESIAN_POINT('',(-129.049999552965,74.9999994039536,26.5));
#1040=CARTESIAN_POINT('Origin',(-126.999999552965,74.9999994039536,26.5));
#1041=CARTESIAN_POINT('',(-129.049999552965,74.9999994039536,35.));
#1042=CARTESIAN_POINT('',(-129.049999552965,74.9999994039536,26.5));
#1043=CARTESIAN_POINT('Origin',(-126.999999552965,74.9999994039536,35.));
#1044=CARTESIAN_POINT('Origin',(-126.999999552965,74.9999994039536,26.5));
#1045=CARTESIAN_POINT('Origin',(30.0000004470348,-40.0000005960464,26.5));
#1046=CARTESIAN_POINT('',(27.9500004470349,-40.0000005960464,26.5));
#1047=CARTESIAN_POINT('Origin',(30.0000004470348,-40.0000005960464,26.5));
#1048=CARTESIAN_POINT('',(27.9500004470349,-40.0000005960464,35.));
#1049=CARTESIAN_POINT('',(27.9500004470348,-40.0000005960464,26.5));
#1050=CARTESIAN_POINT('Origin',(30.0000004470348,-40.0000005960464,35.));
#1051=CARTESIAN_POINT('Origin',(30.0000004470348,-40.0000005960464,26.5));
#1052=CARTESIAN_POINT('Origin',(30.0000004470348,74.9999994039536,26.5));
#1053=CARTESIAN_POINT('',(27.9500004470349,74.9999994039536,26.5));
#1054=CARTESIAN_POINT('Origin',(30.0000004470348,74.9999994039536,26.5));
#1055=CARTESIAN_POINT('',(27.9500004470349,74.9999994039536,35.));
#1056=CARTESIAN_POINT('',(27.9500004470348,74.9999994039536,26.5));
#1057=CARTESIAN_POINT('Origin',(30.0000004470348,74.9999994039536,35.));
#1058=CARTESIAN_POINT('Origin',(30.0000004470348,74.9999994039536,26.5));
#1059=CARTESIAN_POINT('Origin',(-122.,-35.,25.));
#1060=CARTESIAN_POINT('',(-122.,-35.,25.));
#1061=CARTESIAN_POINT('',(-122.,70.,25.));
#1062=CARTESIAN_POINT('',(-122.,-8.75,25.));
#1063=CARTESIAN_POINT('',(-122.,70.,35.));
#1064=CARTESIAN_POINT('',(-122.,70.,25.));
#1065=CARTESIAN_POINT('',(-122.,-35.,35.));
#1066=CARTESIAN_POINT('',(-122.,-8.75,35.));
#1067=CARTESIAN_POINT('',(-122.,-35.,25.));
#1068=CARTESIAN_POINT('Origin',(25.,-35.,25.));
#1069=CARTESIAN_POINT('',(25.,-35.,25.));
#1070=CARTESIAN_POINT('',(25.,-35.,25.));
#1071=CARTESIAN_POINT('',(25.,-35.,35.));
#1072=CARTESIAN_POINT('',(25.,-35.,35.));
#1073=CARTESIAN_POINT('',(25.,-35.,25.));
#1074=CARTESIAN_POINT('Origin',(25.,70.,25.));
#1075=CARTESIAN_POINT('',(25.,70.,25.));
#1076=CARTESIAN_POINT('',(25.,70.,25.));
#1077=CARTESIAN_POINT('',(25.,70.,35.));
#1078=CARTESIAN_POINT('',(25.,70.,35.));
#1079=CARTESIAN_POINT('',(25.,70.,25.));
#1080=CARTESIAN_POINT('Origin',(-130.,70.,25.));
#1081=CARTESIAN_POINT('',(-130.,70.,25.));
#1082=CARTESIAN_POINT('',(-130.,70.,35.));
#1083=CARTESIAN_POINT('Origin',(-132.,80.,25.));
#1084=CARTESIAN_POINT('',(-132.,48.75,25.));
#1085=CARTESIAN_POINT('',(-132.,48.75,35.));
#1086=CARTESIAN_POINT('Origin',(-52.5,17.5,35.));
#1087=CARTESIAN_POINT('Origin',(-52.5,17.5,25.));
#1088=CARTESIAN_POINT('Origin',(-84.03,-14.2,5.));
#1089=CARTESIAN_POINT('',(-82.03,-14.2,13.));
#1090=CARTESIAN_POINT('Origin',(-84.03,-14.2,13.));
#1091=CARTESIAN_POINT('',(-82.03,-14.2,5.));
#1092=CARTESIAN_POINT('Origin',(-84.03,-14.2,5.));
#1093=CARTESIAN_POINT('',(-80.03,-14.2,13.));
#1094=CARTESIAN_POINT('Origin',(-84.03,-14.2,13.));
#1095=CARTESIAN_POINT('',(-80.03,-14.2,5.));
#1096=CARTESIAN_POINT('Origin',(-84.03,-14.2,13.));
#1097=CARTESIAN_POINT('Origin',(-30.,55.8,5.));
#1098=CARTESIAN_POINT('',(-28.,55.8,13.));
#1099=CARTESIAN_POINT('Origin',(-30.,55.8,13.));
#1100=CARTESIAN_POINT('',(-28.,55.8,5.));
#1101=CARTESIAN_POINT('Origin',(-30.,55.8,5.));
#1102=CARTESIAN_POINT('',(-26.,55.8,13.));
#1103=CARTESIAN_POINT('Origin',(-30.,55.8,13.));
#1104=CARTESIAN_POINT('',(-26.,55.8,5.));
#1105=CARTESIAN_POINT('Origin',(-30.,55.8,13.));
#1106=UNCERTAINTY_MEASURE_WITH_UNIT(LENGTH_MEASURE(0.01),#1110,
'DISTANCE_ACCURACY_VALUE',
'Maximum model space distance between geometric entities at asserted c
onnectivities');
#1107=UNCERTAINTY_MEASURE_WITH_UNIT(LENGTH_MEASURE(0.01),#1110,
'DISTANCE_ACCURACY_VALUE',
'Maximum model space distance between geometric entities at asserted c
onnectivities');
#1108=(
GEOMETRIC_REPRESENTATION_CONTEXT(3)
GLOBAL_UNCERTAINTY_ASSIGNED_CONTEXT((#1106))
GLOBAL_UNIT_ASSIGNED_CONTEXT((#1110,#1112,#1113))
REPRESENTATION_CONTEXT('','3D')
);
#1109=(
GEOMETRIC_REPRESENTATION_CONTEXT(3)
GLOBAL_UNCERTAINTY_ASSIGNED_CONTEXT((#1107))
GLOBAL_UNIT_ASSIGNED_CONTEXT((#1110,#1112,#1113))
REPRESENTATION_CONTEXT('','3D')
);
#1110=(
LENGTH_UNIT()
NAMED_UNIT(*)
SI_UNIT(.MILLI.,.METRE.)
);
#1111=(
LENGTH_UNIT()
NAMED_UNIT(*)
SI_UNIT($,.METRE.)
);
#1112=(
NAMED_UNIT(*)
PLANE_ANGLE_UNIT()
SI_UNIT($,.RADIAN.)
);
#1113=(
NAMED_UNIT(*)
SI_UNIT($,.STERADIAN.)
SOLID_ANGLE_UNIT()
);
#1114=SHAPE_DEFINITION_REPRESENTATION(#1115,#1116);
#1115=PRODUCT_DEFINITION_SHAPE('',$,#1118);
#1116=SHAPE_REPRESENTATION('',(#674),#1108);
#1117=PRODUCT_DEFINITION_CONTEXT('part definition',#1122,'design');
#1118=PRODUCT_DEFINITION('2026-07-21-19-03-42-323','AgroBot',#1119,#1117);
#1119=PRODUCT_DEFINITION_FORMATION('',$,#1124);
#1120=PRODUCT_RELATED_PRODUCT_CATEGORY('AgroBot','AgroBot',(#1124));
#1121=APPLICATION_PROTOCOL_DEFINITION('international standard',
'automotive_design',2009,#1122);
#1122=APPLICATION_CONTEXT(
'Core Data for Automotive Mechanical Design Process');
#1123=PRODUCT_CONTEXT('part definition',#1122,'mechanical');
#1124=PRODUCT('2026-07-21-19-03-42-323','AgroBot',$,(#1123));
#1125=PRESENTATION_STYLE_ASSIGNMENT((#1126));
#1126=SURFACE_STYLE_USAGE(.BOTH.,#1127);
#1127=SURFACE_SIDE_STYLE('',(#1128));
#1128=SURFACE_STYLE_FILL_AREA(#1129);
#1129=FILL_AREA_STYLE('Acero - Satinado',(#1130));
#1130=FILL_AREA_STYLE_COLOUR('Acero - Satinado',#1131);
#1131=COLOUR_RGB('Acero - Satinado',0.627450980392157,0.627450980392157,
0.627450980392157);
ENDSEC;
END-ISO-10303-21;
